<svg xmlns="http://www.w3.org/2000/svg" xmlns:xlink="http://www.w3.org/1999/xlink" width="2000" zoomAndPan="magnify" viewBox="0 0 1500 1499.999933" height="2000" preserveAspectRatio="xMidYMid meet" version="1.0"><defs><clipPath id="d9c2270a80"><path d="M 63.125 39.132812 L 800 39.132812 L 800 1464 L 63.125 1464 Z M 63.125 39.132812 " clip-rule="nonzero"/></clipPath><clipPath id="2ca8174e92"><path d="M 1250 656 L 1440.125 656 L 1440.125 847 L 1250 847 Z M 1250 656 " clip-rule="nonzero"/></clipPath></defs><path fill="#134731" d="M 989.03125 632.972656 L 1107.738281 632.972656 C 1114.382812 632.972656 1120.792969 630.125 1125.304688 625.140625 L 1225.019531 515.929688 C 1233.800781 506.195312 1233.089844 491.238281 1223.59375 482.453125 C 1213.859375 473.671875 1198.902344 474.382812 1190.117188 483.878906 L 1097.527344 585.253906 L 989.269531 585.253906 C 976.210938 585.253906 965.527344 595.9375 965.527344 608.996094 C 965.527344 622.054688 976.210938 632.738281 989.269531 632.738281 Z M 989.03125 632.972656 " fill-opacity="1" fill-rule="nonzero"/><path fill="#134731" d="M 1125.304688 878.21875 C 1120.792969 873.234375 1114.382812 870.386719 1107.738281 870.386719 L 989.03125 870.386719 C 975.972656 870.386719 965.289062 881.070312 965.289062 894.125 C 965.289062 907.183594 975.972656 917.867188 989.03125 917.867188 L 1097.289062 917.867188 L 1189.882812 1019.242188 C 1194.628906 1024.464844 1201.039062 1027.078125 1207.449219 1027.078125 C 1213.148438 1027.078125 1218.84375 1024.941406 1223.355469 1020.90625 C 1233.089844 1012.121094 1233.800781 997.164062 1224.78125 987.429688 L 1125.066406 878.21875 Z M 1125.304688 878.21875 " fill-opacity="1" fill-rule="nonzero"/><path fill="#134731" d="M 1273.925781 727.9375 L 989.03125 727.9375 C 975.972656 727.9375 965.289062 738.621094 965.289062 751.679688 C 965.289062 764.738281 975.972656 775.421875 989.03125 775.421875 L 1273.925781 775.421875 C 1286.980469 775.421875 1297.664062 764.738281 1297.664062 751.679688 C 1297.664062 738.621094 1286.980469 727.9375 1273.925781 727.9375 Z M 1273.925781 727.9375 " fill-opacity="1" fill-rule="nonzero"/><path fill="#134731" d="M 561.6875 585.492188 L 490.464844 585.492188 C 477.410156 585.492188 466.726562 596.175781 466.726562 609.234375 C 466.726562 622.289062 477.410156 632.972656 490.464844 632.972656 L 561.6875 632.972656 C 574.746094 632.972656 585.429688 622.289062 585.429688 609.234375 C 585.429688 596.175781 574.746094 585.492188 561.6875 585.492188 Z M 561.6875 585.492188 " fill-opacity="1" fill-rule="nonzero"/><path fill="#134731" d="M 561.6875 870.386719 L 490.464844 870.386719 C 477.410156 870.386719 466.726562 881.070312 466.726562 894.125 C 466.726562 907.183594 477.410156 917.867188 490.464844 917.867188 L 561.6875 917.867188 C 574.746094 917.867188 585.429688 907.183594 585.429688 894.125 C 585.429688 881.070312 574.746094 870.386719 561.6875 870.386719 Z M 561.6875 870.386719 " fill-opacity="1" fill-rule="nonzero"/><path fill="#134731" d="M 561.6875 727.9375 L 490.464844 727.9375 C 477.410156 727.9375 466.726562 738.621094 466.726562 751.679688 C 466.726562 764.738281 477.410156 775.421875 490.464844 775.421875 L 561.6875 775.421875 C 574.746094 775.421875 585.429688 764.738281 585.429688 751.679688 C 585.429688 738.621094 574.746094 727.9375 561.6875 727.9375 Z M 561.6875 727.9375 " fill-opacity="1" fill-rule="nonzero"/><path fill="#134731" d="M 632.914062 443.042969 C 619.855469 443.042969 609.171875 453.726562 609.171875 466.785156 L 609.171875 538.007812 C 609.171875 551.066406 619.855469 561.75 632.914062 561.75 C 645.96875 561.75 656.652344 551.066406 656.652344 538.007812 L 656.652344 466.785156 C 656.652344 453.726562 645.96875 443.042969 632.914062 443.042969 Z M 632.914062 443.042969 " fill-opacity="1" fill-rule="nonzero"/><path fill="#134731" d="M 917.808594 443.042969 C 904.75 443.042969 894.066406 453.726562 894.066406 466.785156 L 894.066406 538.007812 C 894.066406 551.066406 904.75 561.75 917.808594 561.75 C 930.863281 561.75 941.546875 551.066406 941.546875 538.007812 L 941.546875 466.785156 C 941.546875 453.726562 930.863281 443.042969 917.808594 443.042969 Z M 917.808594 443.042969 " fill-opacity="1" fill-rule="nonzero"/><path fill="#134731" d="M 775.359375 443.042969 C 762.300781 443.042969 751.617188 453.726562 751.617188 466.785156 L 751.617188 538.007812 C 751.617188 551.066406 762.300781 561.75 775.359375 561.75 C 788.417969 561.75 799.101562 551.066406 799.101562 538.007812 L 799.101562 466.785156 C 799.101562 453.726562 788.417969 443.042969 775.359375 443.042969 Z M 775.359375 443.042969 " fill-opacity="1" fill-rule="nonzero"/><path fill="#134731" d="M 632.914062 941.609375 C 619.855469 941.609375 609.171875 952.292969 609.171875 965.351562 L 609.171875 1036.574219 C 609.171875 1049.632812 619.855469 1060.316406 632.914062 1060.316406 C 645.96875 1060.316406 656.652344 1049.632812 656.652344 1036.574219 L 656.652344 965.351562 C 656.652344 952.292969 645.96875 941.609375 632.914062 941.609375 Z M 632.914062 941.609375 " fill-opacity="1" fill-rule="nonzero"/><path fill="#134731" d="M 917.808594 941.609375 C 904.75 941.609375 894.066406 952.292969 894.066406 965.351562 L 894.066406 1036.574219 C 894.066406 1049.632812 904.75 1060.316406 917.808594 1060.316406 C 930.863281 1060.316406 941.546875 1049.632812 941.546875 1036.574219 L 941.546875 965.351562 C 941.546875 952.292969 930.863281 941.609375 917.808594 941.609375 Z M 917.808594 941.609375 " fill-opacity="1" fill-rule="nonzero"/><path fill="#134731" d="M 775.359375 941.609375 C 762.300781 941.609375 751.617188 952.292969 751.617188 965.351562 L 751.617188 1036.574219 C 751.617188 1049.632812 762.300781 1060.316406 775.359375 1060.316406 C 788.417969 1060.316406 799.101562 1049.632812 799.101562 1036.574219 L 799.101562 965.351562 C 799.101562 952.292969 788.417969 941.609375 775.359375 941.609375 Z M 775.359375 941.609375 " fill-opacity="1" fill-rule="nonzero"/><path fill="#dc4e27" d="M 561.6875 514.269531 L 989.03125 514.269531 C 989.808594 514.269531 990.582031 514.304688 991.359375 514.382812 C 992.132812 514.457031 992.898438 514.574219 993.664062 514.722656 C 994.425781 514.875 995.179688 515.066406 995.921875 515.289062 C 996.667969 515.515625 997.398438 515.777344 998.117188 516.074219 C 998.835938 516.371094 999.535156 516.703125 1000.222656 517.070312 C 1000.90625 517.4375 1001.574219 517.835938 1002.21875 518.269531 C 1002.867188 518.699219 1003.492188 519.164062 1004.089844 519.65625 C 1004.691406 520.148438 1005.269531 520.671875 1005.816406 521.222656 C 1006.367188 521.769531 1006.890625 522.347656 1007.382812 522.949219 C 1007.875 523.550781 1008.339844 524.171875 1008.769531 524.820312 C 1009.203125 525.464844 1009.601562 526.132812 1009.96875 526.816406 C 1010.335938 527.503906 1010.667969 528.207031 1010.964844 528.921875 C 1011.261719 529.640625 1011.523438 530.375 1011.75 531.117188 C 1011.976562 531.863281 1012.164062 532.613281 1012.316406 533.378906 C 1012.46875 534.140625 1012.582031 534.910156 1012.65625 535.683594 C 1012.734375 536.457031 1012.773438 537.230469 1012.773438 538.007812 L 1012.773438 965.351562 C 1012.773438 966.128906 1012.734375 966.902344 1012.65625 967.675781 C 1012.582031 968.449219 1012.46875 969.21875 1012.316406 969.980469 C 1012.164062 970.746094 1011.976562 971.496094 1011.75 972.242188 C 1011.523438 972.984375 1011.261719 973.71875 1010.964844 974.4375 C 1010.667969 975.152344 1010.335938 975.855469 1009.96875 976.542969 C 1009.601562 977.226562 1009.203125 977.894531 1008.769531 978.539062 C 1008.339844 979.1875 1007.875 979.808594 1007.382812 980.410156 C 1006.890625 981.011719 1006.367188 981.589844 1005.816406 982.136719 C 1005.269531 982.6875 1004.691406 983.210938 1004.09375 983.703125 C 1003.492188 984.195312 1002.867188 984.660156 1002.21875 985.089844 C 1001.574219 985.523438 1000.90625 985.921875 1000.222656 986.289062 C 999.535156 986.65625 998.835938 986.988281 998.117188 987.285156 C 997.398438 987.582031 996.667969 987.84375 995.921875 988.070312 C 995.179688 988.292969 994.425781 988.484375 993.664062 988.636719 C 992.898438 988.785156 992.132812 988.902344 991.359375 988.976562 C 990.582031 989.054688 989.808594 989.089844 989.03125 989.089844 L 561.6875 989.089844 C 560.910156 989.089844 560.136719 989.054688 559.363281 988.976562 C 558.589844 988.902344 557.820312 988.785156 557.058594 988.636719 C 556.296875 988.484375 555.542969 988.292969 554.796875 988.070312 C 554.054688 987.84375 553.324219 987.582031 552.605469 987.285156 C 551.886719 986.988281 551.183594 986.65625 550.496094 986.289062 C 549.8125 985.921875 549.144531 985.523438 548.5 985.089844 C 547.851562 984.660156 547.230469 984.195312 546.628906 983.703125 C 546.027344 983.210938 545.453125 982.6875 544.902344 982.136719 C 544.351562 981.589844 543.832031 981.011719 543.335938 980.410156 C 542.84375 979.808594 542.382812 979.1875 541.949219 978.539062 C 541.515625 977.894531 541.117188 977.226562 540.75 976.542969 C 540.386719 975.855469 540.054688 975.152344 539.753906 974.4375 C 539.457031 973.71875 539.195312 972.984375 538.96875 972.242188 C 538.746094 971.496094 538.554688 970.746094 538.40625 969.980469 C 538.253906 969.21875 538.140625 968.449219 538.0625 967.675781 C 537.988281 966.902344 537.949219 966.128906 537.949219 965.351562 L 537.949219 538.007812 C 537.949219 537.230469 537.988281 536.457031 538.0625 535.683594 C 538.140625 534.910156 538.253906 534.140625 538.40625 533.378906 C 538.554688 532.613281 538.746094 531.863281 538.96875 531.117188 C 539.195312 530.375 539.457031 529.640625 539.753906 528.921875 C 540.054688 528.207031 540.386719 527.503906 540.75 526.816406 C 541.117188 526.132812 541.515625 525.464844 541.949219 524.820312 C 542.382812 524.171875 542.84375 523.550781 543.335938 522.949219 C 543.832031 522.347656 544.351562 521.769531 544.902344 521.222656 C 545.453125 520.671875 546.027344 520.148438 546.628906 519.65625 C 547.230469 519.164062 547.851562 518.699219 548.5 518.269531 C 549.144531 517.835938 549.8125 517.4375 550.496094 517.070312 C 551.183594 516.703125 551.886719 516.371094 552.605469 516.074219 C 553.324219 515.777344 554.054688 515.515625 554.796875 515.289062 C 555.542969 515.066406 556.296875 514.875 557.058594 514.722656 C 557.820312 514.574219 558.589844 514.457031 559.363281 514.382812 C 560.136719 514.304688 560.910156 514.269531 561.6875 514.269531 Z M 561.6875 514.269531 " fill-opacity="1" fill-rule="nonzero"/><path fill="#ffffff" d="M 750.195312 648.40625 C 746.632812 639.148438 737.847656 632.972656 727.878906 632.972656 C 717.90625 632.972656 709.121094 639.148438 705.5625 648.40625 L 634.335938 838.335938 C 629.828125 850.679688 636 864.214844 648.34375 868.960938 C 660.691406 873.472656 674.222656 867.300781 678.972656 854.953125 L 691.078125 822.902344 L 764.914062 822.902344 L 777.023438 854.953125 C 780.582031 864.449219 789.605469 870.386719 799.339844 870.386719 C 802.1875 870.386719 805.035156 869.910156 807.648438 868.960938 C 819.992188 864.449219 826.164062 850.679688 821.417969 838.335938 Z M 708.882812 775.421875 L 728.113281 724.378906 L 747.34375 775.421875 Z M 708.882812 775.421875 " fill-opacity="1" fill-rule="nonzero"/><path fill="#ffffff" d="M 870.324219 632.972656 C 857.265625 632.972656 846.582031 643.65625 846.582031 656.714844 L 846.582031 846.644531 C 846.582031 859.703125 857.265625 870.386719 870.324219 870.386719 C 883.382812 870.386719 894.066406 859.703125 894.066406 846.644531 L 894.066406 656.714844 C 894.066406 643.65625 883.382812 632.972656 870.324219 632.972656 Z M 870.324219 632.972656 " fill-opacity="1" fill-rule="nonzero"/><g clip-path="url(#d9c2270a80)"><path fill="#27333e" d="M 775.359375 348.078125 C 788.417969 348.078125 799.101562 337.394531 799.101562 324.339844 L 799.101562 63.1875 C 799.101562 50.128906 788.417969 39.445312 775.359375 39.445312 L 650.242188 39.445312 C 639.324219 39.445312 629.828125 46.804688 627.214844 57.488281 L 593.265625 193.761719 C 564.300781 203.257812 536.285156 214.65625 509.695312 228.1875 L 389.328125 156.011719 C 380.070312 150.316406 367.960938 151.976562 360.363281 159.574219 L 183.492188 336.445312 C 175.894531 344.042969 174.234375 356.152344 179.929688 365.410156 L 252.105469 485.777344 C 238.570312 512.367188 226.9375 540.382812 217.679688 569.347656 L 81.40625 603.296875 C 70.722656 605.910156 63.363281 615.40625 63.363281 626.328125 L 63.363281 876.558594 C 63.363281 887.480469 70.722656 896.976562 81.40625 899.585938 L 217.679688 933.539062 C 227.175781 962.5 238.570312 990.515625 252.105469 1017.105469 L 179.929688 1137.472656 C 174.234375 1146.734375 175.894531 1158.839844 183.492188 1166.4375 L 360.363281 1343.308594 C 367.960938 1350.90625 380.070312 1352.570312 389.328125 1346.871094 L 509.695312 1274.699219 C 536.285156 1288.230469 564.300781 1299.863281 593.265625 1309.121094 L 627.214844 1445.398438 C 629.828125 1456.082031 639.324219 1463.441406 650.242188 1463.441406 L 775.359375 1463.441406 C 788.417969 1463.441406 799.101562 1452.757812 799.101562 1439.699219 L 799.101562 1178.546875 C 799.101562 1165.488281 788.417969 1154.804688 775.359375 1154.804688 C 552.90625 1154.804688 371.761719 973.660156 371.761719 751.207031 C 371.761719 528.75 552.90625 347.605469 775.359375 347.605469 Z M 775.359375 348.078125 " fill-opacity="1" fill-rule="nonzero"/></g><g clip-path="url(#2ca8174e92)"><path fill="#dc4e27" d="M 1440.113281 751.679688 C 1440.113281 753.234375 1440.074219 754.785156 1440 756.339844 C 1439.921875 757.890625 1439.808594 759.441406 1439.65625 760.988281 C 1439.503906 762.535156 1439.3125 764.078125 1439.085938 765.613281 C 1438.855469 767.152344 1438.589844 768.683594 1438.289062 770.207031 C 1437.984375 771.730469 1437.644531 773.246094 1437.265625 774.753906 C 1436.890625 776.261719 1436.476562 777.757812 1436.023438 779.246094 C 1435.574219 780.734375 1435.085938 782.207031 1434.5625 783.671875 C 1434.039062 785.136719 1433.480469 786.585938 1432.882812 788.019531 C 1432.289062 789.457031 1431.660156 790.878906 1430.996094 792.28125 C 1430.332031 793.6875 1429.632812 795.074219 1428.898438 796.445312 C 1428.167969 797.816406 1427.402344 799.167969 1426.601562 800.5 C 1425.804688 801.835938 1424.972656 803.148438 1424.109375 804.4375 C 1423.246094 805.730469 1422.351562 807 1421.425781 808.25 C 1420.5 809.5 1419.542969 810.722656 1418.558594 811.925781 C 1417.570312 813.125 1416.554688 814.300781 1415.511719 815.453125 C 1414.46875 816.605469 1413.398438 817.730469 1412.296875 818.828125 C 1411.199219 819.929688 1410.074219 821 1408.921875 822.042969 C 1407.769531 823.085938 1406.59375 824.101562 1405.394531 825.089844 C 1404.191406 826.074219 1402.964844 827.03125 1401.71875 827.957031 C 1400.46875 828.882812 1399.199219 829.777344 1397.90625 830.640625 C 1396.617188 831.503906 1395.300781 832.335938 1393.96875 833.132812 C 1392.636719 833.933594 1391.285156 834.699219 1389.914062 835.429688 C 1388.542969 836.164062 1387.15625 836.863281 1385.75 837.527344 C 1384.347656 838.191406 1382.925781 838.820312 1381.488281 839.414062 C 1380.054688 840.011719 1378.605469 840.570312 1377.140625 841.09375 C 1375.675781 841.617188 1374.203125 842.105469 1372.714844 842.554688 C 1371.226562 843.007812 1369.730469 843.421875 1368.222656 843.796875 C 1366.714844 844.175781 1365.199219 844.515625 1363.675781 844.820312 C 1362.152344 845.121094 1360.621094 845.386719 1359.082031 845.617188 C 1357.546875 845.84375 1356.003906 846.035156 1354.457031 846.1875 C 1352.910156 846.339844 1351.359375 846.453125 1349.808594 846.53125 C 1348.253906 846.605469 1346.703125 846.644531 1345.148438 846.644531 C 1343.59375 846.644531 1342.039062 846.605469 1340.488281 846.53125 C 1338.9375 846.453125 1337.386719 846.339844 1335.839844 846.1875 C 1334.292969 846.035156 1332.75 845.84375 1331.214844 845.617188 C 1329.675781 845.386719 1328.144531 845.121094 1326.621094 844.820312 C 1325.097656 844.515625 1323.582031 844.175781 1322.074219 843.796875 C 1320.566406 843.421875 1319.066406 843.007812 1317.582031 842.554688 C 1316.09375 842.105469 1314.617188 841.617188 1313.15625 841.09375 C 1311.691406 840.570312 1310.242188 840.011719 1308.804688 839.414062 C 1307.371094 838.820312 1305.949219 838.191406 1304.546875 837.527344 C 1303.140625 836.863281 1301.753906 836.164062 1300.382812 835.429688 C 1299.011719 834.699219 1297.660156 833.933594 1296.328125 833.132812 C 1294.992188 832.335938 1293.679688 831.503906 1292.386719 830.640625 C 1291.097656 829.777344 1289.824219 828.882812 1288.578125 827.957031 C 1287.328125 827.03125 1286.105469 826.074219 1284.902344 825.089844 C 1283.703125 824.101562 1282.523438 823.085938 1281.375 822.042969 C 1280.222656 821 1279.097656 819.929688 1277.996094 818.828125 C 1276.898438 817.730469 1275.828125 816.605469 1274.785156 815.453125 C 1273.738281 814.300781 1272.726562 813.125 1271.738281 811.925781 C 1270.753906 810.722656 1269.796875 809.5 1268.871094 808.25 C 1267.945312 807 1267.050781 805.730469 1266.1875 804.4375 C 1265.324219 803.148438 1264.492188 801.835938 1263.695312 800.5 C 1262.894531 799.167969 1262.128906 797.816406 1261.398438 796.445312 C 1260.664062 795.074219 1259.964844 793.6875 1259.300781 792.28125 C 1258.636719 790.878906 1258.007812 789.457031 1257.410156 788.019531 C 1256.816406 786.585938 1256.257812 785.136719 1255.734375 783.671875 C 1255.210938 782.207031 1254.722656 780.734375 1254.273438 779.246094 C 1253.820312 777.757812 1253.40625 776.261719 1253.027344 774.753906 C 1252.652344 773.246094 1252.3125 771.730469 1252.007812 770.207031 C 1251.703125 768.683594 1251.4375 767.152344 1251.210938 765.613281 C 1250.984375 764.078125 1250.792969 762.535156 1250.640625 760.988281 C 1250.488281 759.441406 1250.375 757.890625 1250.296875 756.339844 C 1250.222656 754.785156 1250.183594 753.234375 1250.183594 751.679688 C 1250.183594 750.125 1250.222656 748.574219 1250.296875 747.019531 C 1250.375 745.46875 1250.488281 743.917969 1250.640625 742.371094 C 1250.792969 740.824219 1250.984375 739.28125 1251.210938 737.746094 C 1251.4375 736.207031 1251.703125 734.675781 1252.007812 733.152344 C 1252.3125 731.628906 1252.652344 730.113281 1253.027344 728.605469 C 1253.40625 727.097656 1253.820312 725.601562 1254.273438 724.113281 C 1254.722656 722.625 1255.210938 721.148438 1255.734375 719.6875 C 1256.257812 718.222656 1256.816406 716.773438 1257.410156 715.339844 C 1258.007812 713.902344 1258.636719 712.480469 1259.300781 711.078125 C 1259.964844 709.671875 1260.664062 708.285156 1261.398438 706.914062 C 1262.128906 705.542969 1262.894531 704.191406 1263.695312 702.859375 C 1264.492188 701.523438 1265.324219 700.210938 1266.1875 698.921875 C 1267.050781 697.628906 1267.945312 696.359375 1268.871094 695.109375 C 1269.796875 693.859375 1270.753906 692.636719 1271.738281 691.433594 C 1272.726562 690.234375 1273.738281 689.058594 1274.785156 687.90625 C 1275.828125 686.753906 1276.898438 685.628906 1277.996094 684.53125 C 1279.097656 683.429688 1280.222656 682.359375 1281.375 681.316406 C 1282.523438 680.273438 1283.703125 679.257812 1284.902344 678.269531 C 1286.105469 677.285156 1287.328125 676.328125 1288.578125 675.402344 C 1289.824219 674.476562 1291.097656 673.582031 1292.386719 672.71875 C 1293.679688 671.855469 1294.992188 671.023438 1296.328125 670.226562 C 1297.660156 669.425781 1299.011719 668.660156 1300.382812 667.929688 C 1301.753906 667.195312 1303.140625 666.496094 1304.546875 665.832031 C 1305.949219 665.167969 1307.371094 664.539062 1308.804688 663.945312 C 1310.242188 663.347656 1311.691406 662.789062 1313.15625 662.265625 C 1314.617188 661.742188 1316.09375 661.253906 1317.582031 660.804688 C 1319.070312 660.351562 1320.566406 659.9375 1322.074219 659.5625 C 1323.582031 659.183594 1325.097656 658.84375 1326.621094 658.539062 C 1328.144531 658.238281 1329.675781 657.972656 1331.214844 657.742188 C 1332.75 657.515625 1334.292969 657.324219 1335.839844 657.171875 C 1337.386719 657.019531 1338.9375 656.90625 1340.488281 656.828125 C 1342.039062 656.753906 1343.59375 656.714844 1345.148438 656.714844 C 1346.703125 656.714844 1348.253906 656.753906 1349.808594 656.828125 C 1351.359375 656.90625 1352.910156 657.019531 1354.457031 657.171875 C 1356.003906 657.324219 1357.546875 657.515625 1359.082031 657.742188 C 1360.621094 657.972656 1362.152344 658.238281 1363.675781 658.539062 C 1365.199219 658.84375 1366.714844 659.183594 1368.222656 659.5625 C 1369.730469 659.9375 1371.226562 660.351562 1372.714844 660.804688 C 1374.203125 661.253906 1375.675781 661.742188 1377.140625 662.265625 C 1378.605469 662.789062 1380.054688 663.347656 1381.488281 663.945312 C 1382.925781 664.539062 1384.347656 665.167969 1385.75 665.832031 C 1387.15625 666.496094 1388.542969 667.195312 1389.914062 667.929688 C 1391.285156 668.660156 1392.636719 669.425781 1393.96875 670.226562 C 1395.300781 671.023438 1396.617188 671.855469 1397.90625 672.71875 C 1399.199219 673.582031 1400.46875 674.476562 1401.71875 675.402344 C 1402.964844 676.328125 1404.191406 677.285156 1405.394531 678.269531 C 1406.59375 679.257812 1407.769531 680.273438 1408.921875 681.316406 C 1410.074219 682.359375 1411.199219 683.429688 1412.296875 684.53125 C 1413.398438 685.628906 1414.46875 686.753906 1415.511719 687.90625 C 1416.554688 689.058594 1417.570312 690.234375 1418.558594 691.433594 C 1419.542969 692.636719 1420.5 693.859375 1421.425781 695.109375 C 1422.351562 696.359375 1423.246094 697.628906 1424.109375 698.921875 C 1424.972656 700.210938 1425.804688 701.523438 1426.601562 702.859375 C 1427.402344 704.191406 1428.167969 705.542969 1428.898438 706.914062 C 1429.632812 708.285156 1430.332031 709.671875 1430.996094 711.078125 C 1431.660156 712.480469 1432.289062 713.902344 1432.882812 715.339844 C 1433.480469 716.773438 1434.039062 718.222656 1434.5625 719.6875 C 1435.085938 721.148438 1435.574219 722.625 1436.023438 724.113281 C 1436.476562 725.601562 1436.890625 727.097656 1437.265625 728.605469 C 1437.644531 730.113281 1437.984375 731.628906 1438.289062 733.152344 C 1438.589844 734.675781 1438.855469 736.207031 1439.085938 737.746094 C 1439.3125 739.28125 1439.503906 740.824219 1439.65625 742.371094 C 1439.808594 743.917969 1439.921875 745.46875 1440 747.019531 C 1440.074219 748.574219 1440.113281 750.125 1440.113281 751.679688 Z M 1440.113281 751.679688 " fill-opacity="1" fill-rule="nonzero"/></g><path fill="#dc4e27" d="M 1345.148438 443.042969 C 1345.148438 444.597656 1345.109375 446.152344 1345.035156 447.703125 C 1344.957031 449.257812 1344.84375 450.804688 1344.691406 452.351562 C 1344.539062 453.898438 1344.347656 455.441406 1344.121094 456.980469 C 1343.890625 458.515625 1343.625 460.046875 1343.324219 461.570312 C 1343.019531 463.09375 1342.679688 464.613281 1342.300781 466.117188 C 1341.925781 467.625 1341.511719 469.125 1341.058594 470.609375 C 1340.609375 472.097656 1340.121094 473.574219 1339.597656 475.035156 C 1339.074219 476.5 1338.515625 477.949219 1337.917969 479.386719 C 1337.324219 480.820312 1336.695312 482.242188 1336.03125 483.648438 C 1335.367188 485.050781 1334.667969 486.441406 1333.933594 487.808594 C 1333.203125 489.179688 1332.4375 490.53125 1331.636719 491.867188 C 1330.839844 493.199219 1330.007812 494.511719 1329.144531 495.804688 C 1328.28125 497.097656 1327.386719 498.367188 1326.460938 499.613281 C 1325.535156 500.863281 1324.578125 502.089844 1323.59375 503.289062 C 1322.605469 504.492188 1321.589844 505.667969 1320.546875 506.820312 C 1319.503906 507.96875 1318.433594 509.09375 1317.332031 510.195312 C 1316.234375 511.292969 1315.109375 512.363281 1313.957031 513.410156 C 1312.804688 514.453125 1311.628906 515.46875 1310.429688 516.453125 C 1309.226562 517.4375 1308.003906 518.394531 1306.753906 519.320312 C 1305.503906 520.246094 1304.234375 521.140625 1302.941406 522.003906 C 1301.652344 522.867188 1300.339844 523.699219 1299.003906 524.5 C 1297.671875 525.296875 1296.320312 526.0625 1294.949219 526.796875 C 1293.578125 527.527344 1292.191406 528.226562 1290.785156 528.890625 C 1289.382812 529.554688 1287.960938 530.1875 1286.523438 530.78125 C 1285.089844 531.375 1283.640625 531.933594 1282.175781 532.457031 C 1280.710938 532.980469 1279.238281 533.46875 1277.75 533.921875 C 1276.261719 534.371094 1274.765625 534.785156 1273.257812 535.164062 C 1271.75 535.539062 1270.234375 535.882812 1268.710938 536.183594 C 1267.1875 536.488281 1265.65625 536.753906 1264.117188 536.980469 C 1262.582031 537.210938 1261.039062 537.398438 1259.492188 537.550781 C 1257.945312 537.703125 1256.394531 537.820312 1254.84375 537.894531 C 1253.289062 537.972656 1251.738281 538.007812 1250.183594 538.007812 C 1248.628906 538.007812 1247.074219 537.972656 1245.523438 537.894531 C 1243.972656 537.820312 1242.421875 537.703125 1240.875 537.550781 C 1239.328125 537.398438 1237.785156 537.210938 1236.25 536.980469 C 1234.710938 536.753906 1233.179688 536.488281 1231.65625 536.183594 C 1230.132812 535.882812 1228.617188 535.539062 1227.109375 535.164062 C 1225.601562 534.785156 1224.105469 534.371094 1222.617188 533.921875 C 1221.128906 533.46875 1219.652344 532.980469 1218.191406 532.457031 C 1216.726562 531.933594 1215.277344 531.375 1213.84375 530.78125 C 1212.40625 530.1875 1210.984375 529.554688 1209.582031 528.890625 C 1208.175781 528.226562 1206.789062 527.527344 1205.417969 526.796875 C 1204.046875 526.0625 1202.695312 525.296875 1201.363281 524.5 C 1200.027344 523.699219 1198.714844 522.867188 1197.421875 522.003906 C 1196.132812 521.140625 1194.859375 520.246094 1193.613281 519.320312 C 1192.363281 518.394531 1191.140625 517.4375 1189.9375 516.453125 C 1188.738281 515.46875 1187.5625 514.453125 1186.410156 513.410156 C 1185.257812 512.363281 1184.132812 511.292969 1183.035156 510.195312 C 1181.933594 509.09375 1180.863281 507.96875 1179.820312 506.820312 C 1178.777344 505.667969 1177.761719 504.492188 1176.773438 503.289062 C 1175.789062 502.089844 1174.832031 500.863281 1173.90625 499.613281 C 1172.980469 498.367188 1172.085938 497.097656 1171.222656 495.804688 C 1170.359375 494.511719 1169.527344 493.199219 1168.730469 491.867188 C 1167.929688 490.53125 1167.164062 489.179688 1166.433594 487.808594 C 1165.699219 486.441406 1165 485.050781 1164.335938 483.648438 C 1163.671875 482.242188 1163.042969 480.820312 1162.449219 479.386719 C 1161.851562 477.949219 1161.292969 476.5 1160.769531 475.035156 C 1160.246094 473.574219 1159.757812 472.097656 1159.308594 470.609375 C 1158.855469 469.125 1158.441406 467.625 1158.066406 466.117188 C 1157.6875 464.613281 1157.347656 463.09375 1157.042969 461.570312 C 1156.738281 460.046875 1156.472656 458.515625 1156.246094 456.980469 C 1156.019531 455.441406 1155.828125 453.898438 1155.675781 452.351562 C 1155.523438 450.804688 1155.410156 449.257812 1155.332031 447.703125 C 1155.257812 446.152344 1155.21875 444.597656 1155.21875 443.042969 C 1155.21875 441.492188 1155.257812 439.9375 1155.332031 438.382812 C 1155.410156 436.832031 1155.523438 435.28125 1155.675781 433.734375 C 1155.828125 432.191406 1156.019531 430.648438 1156.246094 429.109375 C 1156.472656 427.574219 1156.738281 426.042969 1157.042969 424.519531 C 1157.347656 422.992188 1157.6875 421.476562 1158.066406 419.96875 C 1158.441406 418.460938 1158.855469 416.964844 1159.308594 415.476562 C 1159.757812 413.992188 1160.246094 412.515625 1160.769531 411.050781 C 1161.292969 409.589844 1161.851562 408.140625 1162.449219 406.703125 C 1163.042969 405.265625 1163.671875 403.847656 1164.335938 402.441406 C 1165 401.035156 1165.699219 399.648438 1166.433594 398.277344 C 1167.164062 396.90625 1167.929688 395.554688 1168.730469 394.222656 C 1169.527344 392.890625 1170.359375 391.578125 1171.222656 390.285156 C 1172.085938 388.992188 1172.980469 387.722656 1173.90625 386.472656 C 1174.832031 385.226562 1175.789062 384 1176.773438 382.800781 C 1177.761719 381.597656 1178.777344 380.421875 1179.820312 379.269531 C 1180.863281 378.117188 1181.933594 376.992188 1183.035156 375.894531 C 1184.132812 374.796875 1185.257812 373.722656 1186.410156 372.679688 C 1187.5625 371.636719 1188.738281 370.621094 1189.9375 369.636719 C 1191.140625 368.648438 1192.363281 367.695312 1193.613281 366.769531 C 1194.859375 365.84375 1196.132812 364.949219 1197.421875 364.085938 C 1198.714844 363.222656 1200.027344 362.390625 1201.363281 361.589844 C 1202.695312 360.792969 1204.046875 360.027344 1205.417969 359.292969 C 1206.789062 358.558594 1208.175781 357.863281 1209.582031 357.199219 C 1210.984375 356.53125 1212.40625 355.902344 1213.84375 355.308594 C 1215.277344 354.714844 1216.726562 354.15625 1218.191406 353.632812 C 1219.652344 353.105469 1221.128906 352.621094 1222.617188 352.167969 C 1224.105469 351.71875 1225.601562 351.304688 1227.109375 350.925781 C 1228.617188 350.546875 1230.132812 350.207031 1231.65625 349.90625 C 1233.179688 349.601562 1234.710938 349.335938 1236.25 349.109375 C 1237.785156 348.878906 1239.328125 348.6875 1240.875 348.535156 C 1242.421875 348.382812 1243.972656 348.269531 1245.523438 348.195312 C 1247.074219 348.117188 1248.628906 348.078125 1250.183594 348.078125 C 1251.738281 348.078125 1253.289062 348.117188 1254.84375 348.195312 C 1256.394531 348.269531 1257.945312 348.382812 1259.492188 348.535156 C 1261.039062 348.6875 1262.582031 348.878906 1264.117188 349.109375 C 1265.65625 349.335938 1267.1875 349.601562 1268.710938 349.90625 C 1270.234375 350.207031 1271.75 350.546875 1273.257812 350.925781 C 1274.765625 351.304688 1276.261719 351.71875 1277.75 352.167969 C 1279.238281 352.621094 1280.710938 353.105469 1282.175781 353.632812 C 1283.640625 354.15625 1285.089844 354.714844 1286.523438 355.308594 C 1287.960938 355.902344 1289.382812 356.53125 1290.785156 357.199219 C 1292.191406 357.863281 1293.578125 358.558594 1294.949219 359.292969 C 1296.320312 360.027344 1297.671875 360.792969 1299.003906 361.589844 C 1300.339844 362.390625 1301.652344 363.222656 1302.941406 364.085938 C 1304.234375 364.949219 1305.503906 365.84375 1306.753906 366.769531 C 1308.003906 367.695312 1309.226562 368.648438 1310.429688 369.636719 C 1311.628906 370.621094 1312.804688 371.636719 1313.957031 372.679688 C 1315.109375 373.722656 1316.234375 374.796875 1317.332031 375.894531 C 1318.433594 376.992188 1319.503906 378.117188 1320.546875 379.269531 C 1321.589844 380.421875 1322.605469 381.597656 1323.59375 382.800781 C 1324.578125 384 1325.535156 385.226562 1326.460938 386.472656 C 1327.386719 387.722656 1328.28125 388.992188 1329.144531 390.285156 C 1330.007812 391.578125 1330.839844 392.890625 1331.636719 394.222656 C 1332.4375 395.554688 1333.203125 396.90625 1333.933594 398.277344 C 1334.667969 399.648438 1335.367188 401.035156 1336.03125 402.441406 C 1336.695312 403.847656 1337.324219 405.265625 1337.917969 406.703125 C 1338.515625 408.140625 1339.074219 409.589844 1339.597656 411.050781 C 1340.121094 412.515625 1340.609375 413.992188 1341.058594 415.476562 C 1341.511719 416.964844 1341.925781 418.460938 1342.300781 419.96875 C 1342.679688 421.476562 1343.019531 422.992188 1343.324219 424.519531 C 1343.625 426.042969 1343.890625 427.574219 1344.121094 429.109375 C 1344.347656 430.648438 1344.539062 432.191406 1344.691406 433.734375 C 1344.84375 435.28125 1344.957031 436.832031 1345.035156 438.382812 C 1345.109375 439.9375 1345.148438 441.492188 1345.148438 443.042969 Z M 1345.148438 443.042969 " fill-opacity="1" fill-rule="nonzero"/><path fill="#dc4e27" d="M 1345.148438 1060.316406 C 1345.148438 1061.867188 1345.109375 1063.421875 1345.035156 1064.972656 C 1344.957031 1066.527344 1344.84375 1068.078125 1344.691406 1069.625 C 1344.539062 1071.167969 1344.347656 1072.710938 1344.121094 1074.25 C 1343.890625 1075.785156 1343.625 1077.316406 1343.324219 1078.839844 C 1343.019531 1080.367188 1342.679688 1081.882812 1342.300781 1083.390625 C 1341.925781 1084.898438 1341.511719 1086.394531 1341.058594 1087.882812 C 1340.609375 1089.367188 1340.121094 1090.84375 1339.597656 1092.308594 C 1339.074219 1093.769531 1338.515625 1095.21875 1337.917969 1096.65625 C 1337.324219 1098.09375 1336.695312 1099.511719 1336.03125 1100.917969 C 1335.367188 1102.324219 1334.667969 1103.710938 1333.933594 1105.082031 C 1333.203125 1106.453125 1332.4375 1107.804688 1331.636719 1109.136719 C 1330.839844 1110.46875 1330.007812 1111.78125 1329.144531 1113.074219 C 1328.28125 1114.367188 1327.386719 1115.636719 1326.460938 1116.886719 C 1325.535156 1118.132812 1324.578125 1119.359375 1323.59375 1120.558594 C 1322.605469 1121.761719 1321.589844 1122.9375 1320.546875 1124.089844 C 1319.503906 1125.242188 1318.433594 1126.367188 1317.332031 1127.464844 C 1316.234375 1128.5625 1315.109375 1129.636719 1313.957031 1130.679688 C 1312.804688 1131.722656 1311.628906 1132.738281 1310.429688 1133.722656 C 1309.226562 1134.710938 1308.003906 1135.664062 1306.753906 1136.589844 C 1305.503906 1137.515625 1304.234375 1138.410156 1302.941406 1139.273438 C 1301.652344 1140.136719 1300.339844 1140.96875 1299.003906 1141.769531 C 1297.671875 1142.566406 1296.320312 1143.332031 1294.949219 1144.066406 C 1293.578125 1144.800781 1292.191406 1145.496094 1290.785156 1146.160156 C 1289.382812 1146.828125 1287.960938 1147.457031 1286.523438 1148.050781 C 1285.089844 1148.644531 1283.640625 1149.203125 1282.175781 1149.726562 C 1280.710938 1150.25 1279.238281 1150.738281 1277.75 1151.191406 C 1276.261719 1151.640625 1274.765625 1152.054688 1273.257812 1152.433594 C 1271.75 1152.8125 1270.234375 1153.152344 1268.710938 1153.453125 C 1267.1875 1153.757812 1265.65625 1154.023438 1264.117188 1154.25 C 1262.582031 1154.480469 1261.039062 1154.671875 1259.492188 1154.824219 C 1257.945312 1154.976562 1256.394531 1155.089844 1254.84375 1155.164062 C 1253.289062 1155.242188 1251.738281 1155.28125 1250.183594 1155.28125 C 1248.628906 1155.28125 1247.074219 1155.242188 1245.523438 1155.164062 C 1243.972656 1155.089844 1242.421875 1154.976562 1240.875 1154.824219 C 1239.328125 1154.671875 1237.785156 1154.480469 1236.25 1154.25 C 1234.710938 1154.023438 1233.179688 1153.757812 1231.65625 1153.453125 C 1230.132812 1153.152344 1228.617188 1152.8125 1227.109375 1152.433594 C 1225.601562 1152.054688 1224.105469 1151.640625 1222.617188 1151.191406 C 1221.128906 1150.738281 1219.652344 1150.25 1218.191406 1149.726562 C 1216.726562 1149.203125 1215.277344 1148.644531 1213.84375 1148.050781 C 1212.40625 1147.457031 1210.984375 1146.828125 1209.582031 1146.160156 C 1208.175781 1145.496094 1206.789062 1144.800781 1205.417969 1144.066406 C 1204.046875 1143.332031 1202.695312 1142.566406 1201.363281 1141.769531 C 1200.027344 1140.96875 1198.714844 1140.136719 1197.421875 1139.273438 C 1196.132812 1138.410156 1194.859375 1137.515625 1193.613281 1136.589844 C 1192.363281 1135.664062 1191.140625 1134.710938 1189.9375 1133.722656 C 1188.738281 1132.738281 1187.5625 1131.722656 1186.410156 1130.679688 C 1185.257812 1129.636719 1184.132812 1128.5625 1183.035156 1127.464844 C 1181.933594 1126.367188 1180.863281 1125.242188 1179.820312 1124.089844 C 1178.777344 1122.9375 1177.761719 1121.761719 1176.773438 1120.558594 C 1175.789062 1119.359375 1174.832031 1118.132812 1173.90625 1116.886719 C 1172.980469 1115.636719 1172.085938 1114.367188 1171.222656 1113.074219 C 1170.359375 1111.78125 1169.527344 1110.46875 1168.730469 1109.136719 C 1167.929688 1107.804688 1167.164062 1106.453125 1166.433594 1105.082031 C 1165.699219 1103.710938 1165 1102.324219 1164.335938 1100.917969 C 1163.671875 1099.511719 1163.042969 1098.09375 1162.449219 1096.65625 C 1161.851562 1095.21875 1161.292969 1093.769531 1160.769531 1092.308594 C 1160.246094 1090.84375 1159.757812 1089.367188 1159.308594 1087.882812 C 1158.855469 1086.394531 1158.441406 1084.898438 1158.066406 1083.390625 C 1157.6875 1081.882812 1157.347656 1080.367188 1157.042969 1078.839844 C 1156.738281 1077.316406 1156.472656 1075.785156 1156.246094 1074.25 C 1156.019531 1072.710938 1155.828125 1071.167969 1155.675781 1069.625 C 1155.523438 1068.078125 1155.410156 1066.527344 1155.332031 1064.972656 C 1155.257812 1063.421875 1155.21875 1061.867188 1155.21875 1060.316406 C 1155.21875 1058.761719 1155.257812 1057.207031 1155.332031 1055.65625 C 1155.410156 1054.101562 1155.523438 1052.554688 1155.675781 1051.007812 C 1155.828125 1049.460938 1156.019531 1047.917969 1156.246094 1046.378906 C 1156.472656 1044.84375 1156.738281 1043.3125 1157.042969 1041.789062 C 1157.347656 1040.265625 1157.6875 1038.746094 1158.066406 1037.242188 C 1158.441406 1035.734375 1158.855469 1034.234375 1159.308594 1032.75 C 1159.757812 1031.261719 1160.246094 1029.785156 1160.769531 1028.324219 C 1161.292969 1026.859375 1161.851562 1025.410156 1162.449219 1023.972656 C 1163.042969 1022.539062 1163.671875 1021.117188 1164.335938 1019.710938 C 1165 1018.308594 1165.699219 1016.917969 1166.433594 1015.546875 C 1167.164062 1014.179688 1167.929688 1012.828125 1168.730469 1011.492188 C 1169.527344 1010.160156 1170.359375 1008.847656 1171.222656 1007.554688 C 1172.085938 1006.261719 1172.980469 1004.992188 1173.90625 1003.746094 C 1174.832031 1002.496094 1175.789062 1001.269531 1176.773438 1000.070312 C 1177.761719 998.867188 1178.777344 997.691406 1179.820312 996.539062 C 1180.863281 995.390625 1181.933594 994.265625 1183.035156 993.164062 C 1184.132812 992.066406 1185.257812 990.996094 1186.410156 989.949219 C 1187.5625 988.90625 1188.738281 987.890625 1189.9375 986.90625 C 1191.140625 985.921875 1192.363281 984.964844 1193.613281 984.039062 C 1194.859375 983.113281 1196.132812 982.21875 1197.421875 981.355469 C 1198.714844 980.492188 1200.027344 979.660156 1201.363281 978.859375 C 1202.695312 978.0625 1204.046875 977.296875 1205.417969 976.5625 C 1206.789062 975.832031 1208.175781 975.132812 1209.582031 974.46875 C 1210.984375 973.804688 1212.40625 973.171875 1213.84375 972.578125 C 1215.277344 971.984375 1216.726562 971.425781 1218.191406 970.902344 C 1219.652344 970.378906 1221.128906 969.890625 1222.617188 969.4375 C 1224.105469 968.988281 1225.601562 968.574219 1227.109375 968.195312 C 1228.617188 967.820312 1230.132812 967.476562 1231.65625 967.175781 C 1233.179688 966.871094 1234.710938 966.605469 1236.25 966.378906 C 1237.785156 966.148438 1239.328125 965.960938 1240.875 965.808594 C 1242.421875 965.65625 1243.972656 965.539062 1245.523438 965.464844 C 1247.074219 965.386719 1248.628906 965.351562 1250.183594 965.351562 C 1251.738281 965.351562 1253.289062 965.386719 1254.84375 965.464844 C 1256.394531 965.539062 1257.945312 965.65625 1259.492188 965.808594 C 1261.039062 965.960938 1262.582031 966.148438 1264.117188 966.378906 C 1265.65625 966.605469 1267.1875 966.871094 1268.710938 967.175781 C 1270.234375 967.476562 1271.75 967.820312 1273.257812 968.195312 C 1274.765625 968.574219 1276.261719 968.988281 1277.75 969.4375 C 1279.238281 969.890625 1280.710938 970.378906 1282.175781 970.902344 C 1283.640625 971.425781 1285.089844 971.984375 1286.523438 972.578125 C 1287.960938 973.171875 1289.382812 973.804688 1290.785156 974.46875 C 1292.191406 975.132812 1293.578125 975.832031 1294.949219 976.5625 C 1296.320312 977.296875 1297.671875 978.0625 1299.003906 978.859375 C 1300.339844 979.660156 1301.652344 980.492188 1302.941406 981.355469 C 1304.234375 982.21875 1305.503906 983.113281 1306.753906 984.039062 C 1308.003906 984.964844 1309.226562 985.921875 1310.429688 986.90625 C 1311.628906 987.890625 1312.804688 988.90625 1313.957031 989.949219 C 1315.109375 990.996094 1316.234375 992.066406 1317.332031 993.164062 C 1318.433594 994.265625 1319.503906 995.390625 1320.546875 996.539062 C 1321.589844 997.691406 1322.605469 998.867188 1323.59375 1000.070312 C 1324.578125 1001.269531 1325.535156 1002.496094 1326.460938 1003.746094 C 1327.386719 1004.992188 1328.28125 1006.261719 1329.144531 1007.554688 C 1330.007812 1008.847656 1330.839844 1010.160156 1331.636719 1011.492188 C 1332.4375 1012.828125 1333.203125 1014.179688 1333.933594 1015.550781 C 1334.667969 1016.917969 1335.367188 1018.308594 1336.03125 1019.710938 C 1336.695312 1021.117188 1337.324219 1022.539062 1337.917969 1023.972656 C 1338.515625 1025.410156 1339.074219 1026.859375 1339.597656 1028.324219 C 1340.121094 1029.785156 1340.609375 1031.261719 1341.058594 1032.75 C 1341.511719 1034.234375 1341.925781 1035.734375 1342.300781 1037.242188 C 1342.679688 1038.746094 1343.019531 1040.265625 1343.324219 1041.789062 C 1343.625 1043.3125 1343.890625 1044.84375 1344.121094 1046.378906 C 1344.347656 1047.917969 1344.539062 1049.460938 1344.691406 1051.007812 C 1344.84375 1052.554688 1344.957031 1054.101562 1345.035156 1055.65625 C 1345.109375 1057.207031 1345.148438 1058.761719 1345.148438 1060.316406 Z M 1345.148438 1060.316406 " fill-opacity="1" fill-rule="nonzero"/></svg>