<svg xmlns="http://www.w3.org/2000/svg" xmlns:xlink="http://www.w3.org/1999/xlink" width="2000" zoomAndPan="magnify" viewBox="0 0 1500 1499.999933" height="2000" preserveAspectRatio="xMidYMid meet" version="1.0"><defs><clipPath id="537d9aebcc"><path d="M 56.25 56.25 L 1446.75 56.25 L 1446.75 1446.75 L 56.25 1446.75 Z M 56.25 56.25 " clip-rule="nonzero"/></clipPath></defs><g clip-path="url(#537d9aebcc)"><path fill="#39b54a" d="M 751.5 56.25 C 367.5625 56.25 56.25 367.5625 56.25 751.5 C 56.25 1135.4375 367.5625 1446.75 751.5 1446.75 C 1135.4375 1446.75 1446.75 1135.4375 1446.75 751.5 C 1446.75 367.5625 1135.4375 56.25 751.5 56.25 Z M 1142.78125 644.191406 L 735.996094 1050.980469 C 716.410156 1070.5625 689.890625 1081.582031 662.144531 1081.582031 C 634.808594 1081.582031 608.289062 1070.5625 588.703125 1050.980469 L 385.515625 847.789062 C 344.714844 806.988281 344.714844 741.300781 385.515625 700.5 C 426.316406 660.105469 491.597656 660.105469 532.398438 700.5 L 662.144531 830.652344 L 995.492188 497.308594 C 1036.292969 456.507812 1101.980469 456.507812 1142.78125 497.308594 C 1183.175781 537.703125 1183.175781 603.390625 1142.78125 644.191406 Z M 1142.78125 644.191406 " fill-opacity="1" fill-rule="nonzero"/></g><path fill="#ffffff" d="M 1142.78125 644.191406 L 735.996094 1050.980469 C 716.410156 1070.5625 689.890625 1081.582031 662.144531 1081.582031 C 634.808594 1081.582031 608.289062 1070.5625 588.703125 1050.980469 L 385.515625 847.789062 C 344.714844 806.988281 344.714844 741.300781 385.515625 700.5 C 426.316406 660.105469 491.597656 660.105469 532.398438 700.5 L 662.144531 830.652344 L 995.492188 497.308594 C 1036.292969 456.507812 1101.980469 456.507812 1142.78125 497.308594 C 1183.175781 537.703125 1183.175781 603.390625 1142.78125 644.191406 Z M 1142.78125 644.191406 " fill-opacity="1" fill-rule="nonzero"/></svg>