<svg xmlns="http://www.w3.org/2000/svg" xmlns:xlink="http://www.w3.org/1999/xlink" width="130" zoomAndPan="magnify" viewBox="0 0 97.5 52.499999" height="70" preserveAspectRatio="xMidYMid meet" version="1.0"><defs><clipPath id="05840462f3"><path d="M 0.210938 35 L 35 35 L 35 37 L 0.210938 37 Z M 0.210938 35 " clip-rule="nonzero"/></clipPath></defs><path fill="#ffffff" d="M 2.429688 31.929688 L 2.429688 15.925781 L 7.953125 15.925781 L 7.953125 17.609375 L 8.011719 17.609375 C 9.449219 16.175781 10.976562 15.457031 12.597656 15.457031 C 13.761719 15.457031 14.855469 15.695312 15.871094 16.175781 C 16.890625 16.652344 17.660156 17.390625 18.183594 18.386719 C 19.804688 16.433594 21.574219 15.457031 23.488281 15.457031 C 25.191406 15.457031 26.65625 15.9375 27.882812 16.894531 C 29.109375 17.851562 29.726562 19.347656 29.726562 21.382812 L 29.726562 31.929688 L 24.203125 31.929688 L 24.203125 22.882812 C 24.203125 22.03125 23.96875 21.316406 23.5 20.746094 C 23.035156 20.175781 22.332031 19.886719 21.398438 19.886719 C 20.585938 19.886719 19.96875 20.132812 19.539062 20.621094 C 19.113281 21.109375 18.878906 21.695312 18.835938 22.378906 L 18.835938 31.929688 L 13.316406 31.929688 L 13.316406 22.882812 C 13.316406 22.03125 13.082031 21.316406 12.613281 20.746094 C 12.144531 20.175781 11.445312 19.886719 10.507812 19.886719 C 9.652344 19.886719 9.015625 20.15625 8.589844 20.6875 C 8.164062 21.214844 7.953125 21.84375 7.953125 22.570312 L 7.953125 31.929688 Z M 2.429688 31.929688 " fill-opacity="1" fill-rule="nonzero"/><path fill="#ffffff" d="M 30.726562 31.929688 L 30.726562 15.925781 L 36.246094 15.925781 L 36.246094 17.609375 L 36.308594 17.609375 C 37.742188 16.175781 39.269531 15.457031 40.890625 15.457031 C 42.058594 15.457031 43.148438 15.695312 44.167969 16.175781 C 45.183594 16.652344 45.957031 17.390625 46.480469 18.386719 C 48.101562 16.433594 49.867188 15.457031 51.78125 15.457031 C 53.484375 15.457031 54.953125 15.9375 56.175781 16.894531 C 57.40625 17.851562 58.019531 19.347656 58.019531 21.382812 L 58.019531 31.929688 L 52.5 31.929688 L 52.5 22.882812 C 52.5 22.03125 52.265625 21.316406 51.796875 20.746094 C 51.328125 20.175781 50.625 19.886719 49.691406 19.886719 C 48.882812 19.886719 48.261719 20.132812 47.835938 20.621094 C 47.410156 21.109375 47.175781 21.695312 47.132812 22.378906 L 47.132812 31.929688 L 41.609375 31.929688 L 41.609375 22.882812 C 41.609375 22.03125 41.375 21.316406 40.90625 20.746094 C 40.441406 20.175781 39.742188 19.886719 38.804688 19.886719 C 37.949219 19.886719 37.308594 20.15625 36.886719 20.6875 C 36.457031 21.214844 36.246094 21.84375 36.246094 22.570312 L 36.246094 31.929688 Z M 30.726562 31.929688 " fill-opacity="1" fill-rule="nonzero"/><path fill="#ffffff" d="M 68.84375 31.929688 L 65.101562 31.929688 L 56.523438 15.925781 L 62.886719 15.925781 L 66.785156 24.566406 L 70.621094 15.925781 L 74.429688 15.925781 L 78.265625 24.566406 L 82.167969 15.925781 L 88.535156 15.925781 L 79.953125 31.929688 L 76.207031 31.929688 L 72.527344 23.660156 Z M 68.84375 31.929688 " fill-opacity="1" fill-rule="nonzero"/><path fill="#ffffff" d="M 90.898438 25.25 C 91.898438 25.25 92.746094 25.601562 93.441406 26.296875 C 94.136719 26.996094 94.488281 27.84375 94.488281 28.839844 C 94.488281 29.816406 94.136719 30.652344 93.441406 31.351562 C 92.746094 32.046875 91.898438 32.398438 90.898438 32.398438 C 89.921875 32.398438 89.085938 32.046875 88.386719 31.351562 C 87.691406 30.652344 87.34375 29.816406 87.34375 28.839844 C 87.34375 27.84375 87.691406 26.996094 88.386719 26.296875 C 89.085938 25.601562 89.921875 25.25 90.898438 25.25 Z M 90.898438 25.25 " fill-opacity="1" fill-rule="nonzero"/><path fill="#dc4e27" d="M 5.191406 37.039062 L 5.042969 35.164062 L 5.023438 35.164062 L 4.375 37.019531 L 3.945312 37.019531 L 3.296875 35.164062 L 3.28125 35.164062 L 3.132812 37.039062 L 2.410156 37.039062 L 2.695312 33.878906 L 3.460938 33.878906 L 4.160156 35.703125 L 4.863281 33.878906 L 5.625 33.878906 L 5.910156 37.039062 Z M 5.191406 37.039062 " fill-opacity="1" fill-rule="nonzero"/><path fill="#dc4e27" d="M 7.347656 33.878906 L 8.066406 33.878906 L 8.066406 37.039062 L 7.347656 37.039062 Z M 7.347656 33.878906 " fill-opacity="1" fill-rule="nonzero"/><path fill="#dc4e27" d="M 10.394531 33.878906 L 10.394531 36.40625 L 11.484375 36.40625 L 11.484375 37.039062 L 9.675781 37.039062 L 9.675781 33.878906 Z M 10.394531 33.878906 " fill-opacity="1" fill-rule="nonzero"/><path fill="#dc4e27" d="M 14.796875 33.878906 L 14.796875 34.511719 L 13.707031 34.511719 L 13.707031 35.140625 L 14.746094 35.140625 L 14.746094 35.773438 L 13.707031 35.773438 L 13.707031 36.40625 L 14.796875 36.40625 L 14.796875 37.039062 L 12.988281 37.039062 L 12.988281 33.878906 Z M 14.796875 33.878906 " fill-opacity="1" fill-rule="nonzero"/><path fill="#dc4e27" d="M 17.074219 35.082031 L 17.074219 37.039062 L 16.355469 37.039062 L 16.355469 33.878906 L 17.074219 33.878906 L 18.328125 35.84375 L 18.339844 35.84375 L 18.339844 33.878906 L 19.058594 33.878906 L 19.058594 37.039062 L 18.339844 37.039062 L 17.082031 35.082031 Z M 17.074219 35.082031 " fill-opacity="1" fill-rule="nonzero"/><path fill="#dc4e27" d="M 21.382812 35.082031 L 21.382812 37.039062 L 20.664062 37.039062 L 20.664062 33.878906 L 21.382812 33.878906 L 22.640625 35.84375 L 22.648438 35.84375 L 22.648438 33.878906 L 23.367188 33.878906 L 23.367188 37.039062 L 22.648438 37.039062 L 21.394531 35.082031 Z M 21.382812 35.082031 " fill-opacity="1" fill-rule="nonzero"/><path fill="#dc4e27" d="M 24.976562 33.878906 L 25.691406 33.878906 L 25.691406 37.039062 L 24.976562 37.039062 Z M 24.976562 33.878906 " fill-opacity="1" fill-rule="nonzero"/><path fill="#dc4e27" d="M 28.90625 33.878906 L 30.183594 37.039062 L 29.40625 37.039062 L 29.175781 36.40625 L 27.96875 36.40625 L 27.742188 37.039062 L 26.964844 37.039062 L 28.238281 33.878906 Z M 28.925781 35.777344 L 28.578125 34.855469 L 28.570312 34.855469 L 28.21875 35.777344 Z M 28.925781 35.777344 " fill-opacity="1" fill-rule="nonzero"/><path fill="#dc4e27" d="M 32.167969 33.878906 L 32.167969 36.40625 L 33.261719 36.40625 L 33.261719 37.039062 L 31.453125 37.039062 L 31.453125 33.878906 Z M 32.167969 33.878906 " fill-opacity="1" fill-rule="nonzero"/><path fill="#dc4e27" d="M 39.566406 37.039062 L 39.417969 35.164062 L 39.398438 35.164062 L 38.75 37.019531 L 38.320312 37.019531 L 37.671875 35.164062 L 37.660156 35.164062 L 37.507812 37.039062 L 36.785156 37.039062 L 37.070312 33.878906 L 37.839844 33.878906 L 38.535156 35.703125 L 39.238281 33.878906 L 40 33.878906 L 40.285156 37.039062 Z M 39.566406 37.039062 " fill-opacity="1" fill-rule="nonzero"/><path fill="#dc4e27" d="M 43.535156 33.878906 L 43.535156 34.511719 L 42.441406 34.511719 L 42.441406 35.140625 L 43.484375 35.140625 L 43.484375 35.773438 L 42.441406 35.773438 L 42.441406 36.40625 L 43.535156 36.40625 L 43.535156 37.039062 L 41.726562 37.039062 L 41.726562 33.878906 Z M 43.535156 33.878906 " fill-opacity="1" fill-rule="nonzero"/><path fill="#dc4e27" d="M 45.8125 35.082031 L 45.8125 37.039062 L 45.09375 37.039062 L 45.09375 33.878906 L 45.8125 33.878906 L 47.066406 35.84375 L 47.078125 35.84375 L 47.078125 33.878906 L 47.792969 33.878906 L 47.792969 37.039062 L 47.078125 37.039062 L 45.820312 35.082031 Z M 45.8125 35.082031 " fill-opacity="1" fill-rule="nonzero"/><path fill="#dc4e27" d="M 49.203125 34.511719 L 49.203125 33.878906 L 51.425781 33.878906 L 51.425781 34.511719 L 50.675781 34.511719 L 50.675781 37.039062 L 49.957031 37.039062 L 49.957031 34.511719 Z M 49.203125 34.511719 " fill-opacity="1" fill-rule="nonzero"/><path fill="#dc4e27" d="M 54.4375 33.878906 L 55.714844 37.039062 L 54.9375 37.039062 L 54.707031 36.40625 L 53.5 36.40625 L 53.269531 37.039062 L 52.492188 37.039062 L 53.769531 33.878906 Z M 54.457031 35.777344 L 54.109375 34.855469 L 54.097656 34.855469 L 53.75 35.777344 Z M 54.457031 35.777344 " fill-opacity="1" fill-rule="nonzero"/><path fill="#dc4e27" d="M 57.699219 33.878906 L 57.699219 36.40625 L 58.792969 36.40625 L 58.792969 37.039062 L 56.980469 37.039062 L 56.980469 33.878906 Z M 57.699219 33.878906 " fill-opacity="1" fill-rule="nonzero"/><path fill="#dc4e27" d="M 64.910156 37.039062 L 64.40625 35.265625 L 63.898438 37.039062 L 63.097656 37.039062 L 62.195312 33.878906 L 63 33.878906 L 63.539062 36.046875 L 63.558594 36.046875 L 64.132812 33.878906 L 64.675781 33.878906 L 65.253906 36.046875 L 65.265625 36.046875 L 65.808594 33.878906 L 66.601562 33.878906 L 65.707031 37.039062 Z M 64.910156 37.039062 " fill-opacity="1" fill-rule="nonzero"/><path fill="#dc4e27" d="M 69.734375 33.878906 L 69.734375 34.511719 L 68.640625 34.511719 L 68.640625 35.140625 L 69.683594 35.140625 L 69.683594 35.773438 L 68.640625 35.773438 L 68.640625 36.40625 L 69.734375 36.40625 L 69.734375 37.039062 L 67.925781 37.039062 L 67.925781 33.878906 Z M 69.734375 33.878906 " fill-opacity="1" fill-rule="nonzero"/><path fill="#dc4e27" d="M 72.011719 33.878906 L 72.011719 36.40625 L 73.101562 36.40625 L 73.101562 37.039062 L 71.292969 37.039062 L 71.292969 33.878906 Z M 72.011719 33.878906 " fill-opacity="1" fill-rule="nonzero"/><path fill="#dc4e27" d="M 75.320312 33.878906 L 75.320312 36.40625 L 76.414062 36.40625 L 76.414062 37.039062 L 74.605469 37.039062 L 74.605469 33.878906 Z M 75.320312 33.878906 " fill-opacity="1" fill-rule="nonzero"/><path fill="#dc4e27" d="M 77.914062 33.878906 L 78.898438 33.878906 C 79.191406 33.878906 79.425781 33.941406 79.605469 34.070312 C 79.78125 34.195312 79.867188 34.402344 79.867188 34.6875 C 79.867188 35.003906 79.738281 35.230469 79.476562 35.363281 C 79.921875 35.441406 80.148438 35.707031 80.148438 36.15625 C 80.148438 36.421875 80.054688 36.636719 79.867188 36.800781 C 79.6875 36.960938 79.433594 37.039062 79.109375 37.039062 L 77.914062 37.039062 Z M 78.632812 35.117188 L 78.691406 35.117188 C 78.851562 35.117188 78.972656 35.089844 79.050781 35.035156 C 79.132812 34.980469 79.171875 34.886719 79.171875 34.757812 C 79.171875 34.542969 79.011719 34.4375 78.691406 34.4375 L 78.632812 34.4375 Z M 78.632812 36.484375 L 78.863281 36.484375 C 79.214844 36.484375 79.390625 36.367188 79.390625 36.132812 C 79.390625 35.992188 79.34375 35.894531 79.253906 35.832031 C 79.167969 35.769531 79.039062 35.738281 78.863281 35.738281 L 78.632812 35.738281 Z M 78.632812 36.484375 " fill-opacity="1" fill-rule="nonzero"/><path fill="#dc4e27" d="M 83.421875 33.878906 L 83.421875 34.511719 L 82.332031 34.511719 L 82.332031 35.140625 L 83.371094 35.140625 L 83.371094 35.773438 L 82.332031 35.773438 L 82.332031 36.40625 L 83.421875 36.40625 L 83.421875 37.039062 L 81.613281 37.039062 L 81.613281 33.878906 Z M 83.421875 33.878906 " fill-opacity="1" fill-rule="nonzero"/><path fill="#dc4e27" d="M 84.980469 33.878906 L 85.699219 33.878906 L 85.699219 37.039062 L 84.980469 37.039062 Z M 84.980469 33.878906 " fill-opacity="1" fill-rule="nonzero"/><path fill="#dc4e27" d="M 88.027344 35.082031 L 88.027344 37.039062 L 87.308594 37.039062 L 87.308594 33.878906 L 88.027344 33.878906 L 89.28125 35.84375 L 89.292969 35.84375 L 89.292969 33.878906 L 90.007812 33.878906 L 90.007812 37.039062 L 89.292969 37.039062 L 88.035156 35.082031 Z M 88.027344 35.082031 " fill-opacity="1" fill-rule="nonzero"/><path fill="#dc4e27" d="M 94.472656 35.269531 L 94.472656 35.957031 C 94.390625 36.335938 94.210938 36.617188 93.933594 36.808594 C 93.664062 37.003906 93.355469 37.097656 93.011719 37.097656 C 92.585938 37.097656 92.226562 36.941406 91.925781 36.621094 C 91.628906 36.300781 91.476562 35.917969 91.476562 35.464844 C 91.476562 35.003906 91.625 34.613281 91.917969 34.296875 C 92.207031 33.984375 92.574219 33.824219 93.011719 33.824219 C 93.527344 33.824219 93.933594 34.003906 94.234375 34.363281 L 93.761719 34.882812 C 93.589844 34.609375 93.355469 34.472656 93.058594 34.472656 C 92.835938 34.472656 92.644531 34.570312 92.488281 34.761719 C 92.332031 34.953125 92.253906 35.1875 92.253906 35.464844 C 92.253906 35.730469 92.332031 35.960938 92.488281 36.152344 C 92.644531 36.339844 92.835938 36.4375 93.058594 36.4375 C 93.238281 36.4375 93.398438 36.382812 93.535156 36.273438 C 93.671875 36.160156 93.742188 36.011719 93.742188 35.828125 L 93.011719 35.828125 L 93.011719 35.269531 Z M 94.472656 35.269531 " fill-opacity="1" fill-rule="nonzero"/><g clip-path="url(#05840462f3)"><path fill="#2c2c2c" d="M 0.613281 35.125 L 1.570312 35.125 L 1.570312 36.082031 L 0.613281 36.082031 M 2.527344 35.125 L 3.484375 35.125 L 3.484375 36.082031 L 2.527344 36.082031 M 4.441406 35.125 L 5.398438 35.125 L 5.398438 36.082031 L 4.441406 36.082031 M 6.355469 35.125 L 7.3125 35.125 L 7.3125 36.082031 L 6.355469 36.082031 M 8.269531 35.125 L 9.226562 35.125 L 9.226562 36.082031 L 8.269531 36.082031 M 10.183594 35.125 L 11.140625 35.125 L 11.140625 36.082031 L 10.183594 36.082031 M 12.097656 35.125 L 13.054688 35.125 L 13.054688 36.082031 L 12.097656 36.082031 M 14.011719 35.125 L 14.96875 35.125 L 14.96875 36.082031 L 14.011719 36.082031 M 15.925781 35.125 L 16.882812 35.125 L 16.882812 36.082031 L 15.925781 36.082031 M 17.839844 35.125 L 18.796875 35.125 L 18.796875 36.082031 L 17.839844 36.082031 M 19.753906 35.125 L 20.710938 35.125 L 20.710938 36.082031 L 19.753906 36.082031 M 21.664062 35.125 L 22.621094 35.125 L 22.621094 36.082031 L 21.664062 36.082031 M 23.578125 35.125 L 24.535156 35.125 L 24.535156 36.082031 L 23.578125 36.082031 M 25.492188 35.125 L 26.449219 35.125 L 26.449219 36.082031 L 25.492188 36.082031 M 27.40625 35.125 L 28.363281 35.125 L 28.363281 36.082031 L 27.40625 36.082031 M 29.320312 35.125 L 30.277344 35.125 L 30.277344 36.082031 L 29.320312 36.082031 M 31.234375 35.125 L 32.191406 35.125 L 32.191406 36.082031 L 31.234375 36.082031 M 33.148438 35.125 L 34.105469 35.125 L 34.105469 36.082031 L 33.148438 36.082031 " fill-opacity="1" fill-rule="nonzero"/></g><path fill="#ffffff" d="M 15.386719 41.535156 L 15.238281 39.664062 L 15.214844 39.664062 L 14.570312 41.515625 L 14.140625 41.515625 L 13.492188 39.664062 L 13.476562 39.664062 L 13.328125 41.535156 L 12.605469 41.535156 L 12.890625 38.375 L 13.65625 38.375 L 14.355469 40.199219 L 15.058594 38.375 L 15.820312 38.375 L 16.105469 41.535156 Z M 15.386719 41.535156 " fill-opacity="1" fill-rule="nonzero"/><path fill="#ffffff" d="M 17.199219 38.375 L 18.066406 38.375 L 18.726562 39.386719 L 19.382812 38.375 L 20.246094 38.375 L 19.082031 40.121094 L 19.082031 41.535156 L 18.359375 41.535156 L 18.359375 40.121094 Z M 17.199219 38.375 " fill-opacity="1" fill-rule="nonzero"/></svg>