<svg xmlns="http://www.w3.org/2000/svg" xmlns:xlink="http://www.w3.org/1999/xlink" width="1200" zoomAndPan="magnify" viewBox="0 0 900 52.499999" height="70" preserveAspectRatio="xMidYMid meet" version="1.0"><path fill="#ffffff" d="M 363.414062 31.976562 L 363.414062 3.449219 L 373.257812 3.449219 L 373.257812 6.449219 L 373.367188 6.449219 C 375.925781 3.890625 378.648438 2.613281 381.539062 2.613281 C 383.617188 2.613281 385.5625 3.039062 387.375 3.890625 C 389.191406 4.746094 390.566406 6.058594 391.5 7.835938 C 394.386719 4.355469 397.539062 2.613281 400.949219 2.613281 C 403.988281 2.613281 406.601562 3.464844 408.785156 5.171875 C 410.976562 6.878906 412.074219 9.546875 412.074219 13.175781 L 412.074219 31.976562 L 402.230469 31.976562 L 402.230469 15.851562 C 402.230469 14.328125 401.8125 13.058594 400.976562 12.039062 C 400.140625 11.023438 398.890625 10.511719 397.226562 10.511719 C 395.78125 10.511719 394.679688 10.945312 393.914062 11.816406 C 393.15625 12.6875 392.738281 13.734375 392.660156 14.953125 L 392.660156 31.976562 L 382.816406 31.976562 L 382.816406 15.851562 C 382.816406 14.328125 382.402344 13.058594 381.566406 12.039062 C 380.734375 11.023438 379.488281 10.511719 377.816406 10.511719 C 376.292969 10.511719 375.152344 10.988281 374.394531 11.933594 C 373.636719 12.875 373.257812 13.992188 373.257812 15.289062 L 373.257812 31.976562 Z M 363.414062 31.976562 " fill-opacity="1" fill-rule="nonzero"/><path fill="#ffffff" d="M 413.855469 31.976562 L 413.855469 3.449219 L 423.699219 3.449219 L 423.699219 6.449219 L 423.804688 6.449219 C 426.363281 3.890625 429.085938 2.613281 431.976562 2.613281 C 434.054688 2.613281 436.003906 3.039062 437.816406 3.890625 C 439.632812 4.746094 441.007812 6.058594 441.9375 7.835938 C 444.828125 4.355469 447.976562 2.613281 451.390625 2.613281 C 454.429688 2.613281 457.039062 3.464844 459.226562 5.171875 C 461.414062 6.878906 462.511719 9.546875 462.511719 13.175781 L 462.511719 31.976562 L 452.667969 31.976562 L 452.667969 15.851562 C 452.667969 14.328125 452.25 13.058594 451.417969 12.039062 C 450.582031 11.023438 449.332031 10.511719 447.667969 10.511719 C 446.222656 10.511719 445.117188 10.945312 444.351562 11.816406 C 443.59375 12.6875 443.175781 13.734375 443.101562 14.953125 L 443.101562 31.976562 L 433.257812 31.976562 L 433.257812 15.851562 C 433.257812 14.328125 432.839844 13.058594 432.003906 12.039062 C 431.171875 11.023438 429.925781 10.511719 428.253906 10.511719 C 426.730469 10.511719 425.59375 10.988281 424.835938 11.933594 C 424.074219 12.875 423.699219 13.992188 423.699219 15.289062 L 423.699219 31.976562 Z M 413.855469 31.976562 " fill-opacity="1" fill-rule="nonzero"/><path fill="#ffffff" d="M 481.800781 31.976562 L 475.128906 31.976562 L 459.839844 3.449219 L 471.1875 3.449219 L 478.132812 18.851562 L 484.972656 3.449219 L 491.761719 3.449219 L 498.601562 18.851562 L 505.558594 3.449219 L 516.902344 3.449219 L 501.605469 31.976562 L 494.933594 31.976562 L 488.367188 17.238281 Z M 481.800781 31.976562 " fill-opacity="1" fill-rule="nonzero"/><path fill="#ffffff" d="M 521.121094 20.070312 C 522.902344 20.070312 524.410156 20.691406 525.652344 21.9375 C 526.894531 23.179688 527.515625 24.691406 527.515625 26.46875 C 527.515625 28.207031 526.894531 29.699219 525.652344 30.945312 C 524.410156 32.1875 522.902344 32.808594 521.121094 32.808594 C 519.378906 32.808594 517.886719 32.1875 516.640625 30.945312 C 515.402344 29.699219 514.785156 28.207031 514.785156 26.46875 C 514.785156 24.691406 515.402344 23.179688 516.640625 21.9375 C 517.886719 20.691406 519.378906 20.070312 521.121094 20.070312 Z M 521.121094 20.070312 " fill-opacity="1" fill-rule="nonzero"/><path fill="#dc4e27" d="M 368.339844 41.085938 L 368.070312 37.742188 L 368.035156 37.742188 L 366.882812 41.050781 L 366.117188 41.050781 L 364.960938 37.742188 L 364.9375 37.742188 L 364.667969 41.085938 L 363.382812 41.085938 L 363.886719 35.453125 L 365.253906 35.453125 L 366.5 38.703125 L 367.75 35.453125 L 369.109375 35.453125 L 369.617188 41.085938 Z M 368.339844 41.085938 " fill-opacity="1" fill-rule="nonzero"/><path fill="#dc4e27" d="M 372.183594 35.453125 L 373.464844 35.453125 L 373.464844 41.085938 L 372.183594 41.085938 Z M 372.183594 35.453125 " fill-opacity="1" fill-rule="nonzero"/><path fill="#dc4e27" d="M 377.613281 35.453125 L 377.613281 39.957031 L 379.558594 39.957031 L 379.558594 41.085938 L 376.332031 41.085938 L 376.332031 35.453125 Z M 377.613281 35.453125 " fill-opacity="1" fill-rule="nonzero"/><path fill="#dc4e27" d="M 385.460938 35.453125 L 385.460938 36.582031 L 383.515625 36.582031 L 383.515625 37.699219 L 385.371094 37.699219 L 385.371094 38.828125 L 383.515625 38.828125 L 383.515625 39.957031 L 385.460938 39.957031 L 385.460938 41.085938 L 382.234375 41.085938 L 382.234375 35.453125 Z M 385.460938 35.453125 " fill-opacity="1" fill-rule="nonzero"/><path fill="#dc4e27" d="M 389.519531 37.59375 L 389.519531 41.085938 L 388.238281 41.085938 L 388.238281 35.453125 L 389.519531 35.453125 L 391.757812 38.953125 L 391.773438 38.953125 L 391.773438 35.453125 L 393.054688 35.453125 L 393.054688 41.085938 L 391.773438 41.085938 L 389.535156 37.59375 Z M 389.519531 37.59375 " fill-opacity="1" fill-rule="nonzero"/><path fill="#dc4e27" d="M 397.199219 37.59375 L 397.199219 41.085938 L 395.921875 41.085938 L 395.921875 35.453125 L 397.199219 35.453125 L 399.441406 38.953125 L 399.457031 38.953125 L 399.457031 35.453125 L 400.738281 35.453125 L 400.738281 41.085938 L 399.457031 41.085938 L 397.21875 37.59375 Z M 397.199219 37.59375 " fill-opacity="1" fill-rule="nonzero"/><path fill="#dc4e27" d="M 403.605469 35.453125 L 404.882812 35.453125 L 404.882812 41.085938 L 403.605469 41.085938 Z M 403.605469 35.453125 " fill-opacity="1" fill-rule="nonzero"/><path fill="#dc4e27" d="M 410.613281 35.453125 L 412.886719 41.085938 L 411.503906 41.085938 L 411.09375 39.957031 L 408.945312 39.957031 L 408.535156 41.085938 L 407.148438 41.085938 L 409.421875 35.453125 Z M 410.648438 38.835938 L 410.027344 37.191406 L 410.011719 37.191406 L 409.386719 38.835938 Z M 410.648438 38.835938 " fill-opacity="1" fill-rule="nonzero"/><path fill="#dc4e27" d="M 416.429688 35.453125 L 416.429688 39.957031 L 418.375 39.957031 L 418.375 41.085938 L 415.148438 41.085938 L 415.148438 35.453125 Z M 416.429688 35.453125 " fill-opacity="1" fill-rule="nonzero"/><path fill="#dc4e27" d="M 429.617188 41.085938 L 429.351562 37.742188 L 429.3125 37.742188 L 428.160156 41.050781 L 427.394531 41.050781 L 426.242188 37.742188 L 426.214844 37.742188 L 425.945312 41.085938 L 424.660156 41.085938 L 425.164062 35.453125 L 426.535156 35.453125 L 427.777344 38.703125 L 429.03125 35.453125 L 430.390625 35.453125 L 430.894531 41.085938 Z M 429.617188 41.085938 " fill-opacity="1" fill-rule="nonzero"/><path fill="#dc4e27" d="M 436.6875 35.453125 L 436.6875 36.582031 L 434.742188 36.582031 L 434.742188 37.699219 L 436.597656 37.699219 L 436.597656 38.828125 L 434.742188 38.828125 L 434.742188 39.957031 L 436.6875 39.957031 L 436.6875 41.085938 L 433.460938 41.085938 L 433.460938 35.453125 Z M 436.6875 35.453125 " fill-opacity="1" fill-rule="nonzero"/><path fill="#dc4e27" d="M 440.746094 37.59375 L 440.746094 41.085938 L 439.46875 41.085938 L 439.46875 35.453125 L 440.746094 35.453125 L 442.984375 38.953125 L 443.003906 38.953125 L 443.003906 35.453125 L 444.28125 35.453125 L 444.28125 41.085938 L 443.003906 41.085938 L 440.765625 37.59375 Z M 440.746094 37.59375 " fill-opacity="1" fill-rule="nonzero"/><path fill="#dc4e27" d="M 446.792969 36.582031 L 446.792969 35.453125 L 450.757812 35.453125 L 450.757812 36.582031 L 449.414062 36.582031 L 449.414062 41.085938 L 448.136719 41.085938 L 448.136719 36.582031 Z M 446.792969 36.582031 " fill-opacity="1" fill-rule="nonzero"/><path fill="#dc4e27" d="M 456.125 35.453125 L 458.398438 41.085938 L 457.011719 41.085938 L 456.605469 39.957031 L 454.453125 39.957031 L 454.046875 41.085938 L 452.660156 41.085938 L 454.933594 35.453125 Z M 456.160156 38.835938 L 455.539062 37.191406 L 455.519531 37.191406 L 454.898438 38.835938 Z M 456.160156 38.835938 " fill-opacity="1" fill-rule="nonzero"/><path fill="#dc4e27" d="M 461.9375 35.453125 L 461.9375 39.957031 L 463.882812 39.957031 L 463.882812 41.085938 L 460.660156 41.085938 L 460.660156 35.453125 Z M 461.9375 35.453125 " fill-opacity="1" fill-rule="nonzero"/><path fill="#dc4e27" d="M 474.789062 41.085938 L 473.890625 37.921875 L 472.984375 41.085938 L 471.566406 41.085938 L 469.957031 35.453125 L 471.386719 35.453125 L 472.347656 39.316406 L 472.382812 39.316406 L 473.402344 35.453125 L 474.371094 35.453125 L 475.402344 39.316406 L 475.429688 39.316406 L 476.398438 35.453125 L 477.808594 35.453125 L 476.210938 41.085938 Z M 474.789062 41.085938 " fill-opacity="1" fill-rule="nonzero"/><path fill="#dc4e27" d="M 483.390625 35.453125 L 483.390625 36.582031 L 481.445312 36.582031 L 481.445312 37.699219 L 483.304688 37.699219 L 483.304688 38.828125 L 481.445312 38.828125 L 481.445312 39.957031 L 483.390625 39.957031 L 483.390625 41.085938 L 480.167969 41.085938 L 480.167969 35.453125 Z M 483.390625 35.453125 " fill-opacity="1" fill-rule="nonzero"/><path fill="#dc4e27" d="M 487.449219 35.453125 L 487.449219 39.957031 L 489.398438 39.957031 L 489.398438 41.085938 L 486.171875 41.085938 L 486.171875 35.453125 Z M 487.449219 35.453125 " fill-opacity="1" fill-rule="nonzero"/><path fill="#dc4e27" d="M 493.351562 35.453125 L 493.351562 39.957031 L 495.296875 39.957031 L 495.296875 41.085938 L 492.074219 41.085938 L 492.074219 35.453125 Z M 493.351562 35.453125 " fill-opacity="1" fill-rule="nonzero"/><path fill="#dc4e27" d="M 497.976562 35.453125 L 499.726562 35.453125 C 500.25 35.453125 500.671875 35.566406 500.988281 35.789062 C 501.300781 36.015625 501.457031 36.382812 501.457031 36.890625 C 501.457031 37.457031 501.222656 37.855469 500.757812 38.097656 C 501.554688 38.238281 501.957031 38.707031 501.957031 39.511719 C 501.957031 39.988281 501.789062 40.371094 501.457031 40.65625 C 501.132812 40.941406 500.679688 41.085938 500.109375 41.085938 L 497.976562 41.085938 Z M 499.253906 37.65625 L 499.359375 37.65625 C 499.644531 37.65625 499.859375 37.609375 500 37.511719 C 500.144531 37.414062 500.214844 37.246094 500.214844 37.015625 C 500.214844 36.636719 499.929688 36.445312 499.359375 36.445312 L 499.253906 36.445312 Z M 499.253906 40.097656 L 499.664062 40.097656 C 500.289062 40.097656 500.605469 39.890625 500.605469 39.46875 C 500.605469 39.21875 500.523438 39.042969 500.363281 38.933594 C 500.210938 38.824219 499.976562 38.765625 499.664062 38.765625 L 499.253906 38.765625 Z M 499.253906 40.097656 " fill-opacity="1" fill-rule="nonzero"/><path fill="#dc4e27" d="M 507.792969 35.453125 L 507.792969 36.582031 L 505.847656 36.582031 L 505.847656 37.699219 L 507.703125 37.699219 L 507.703125 38.828125 L 505.847656 38.828125 L 505.847656 39.957031 L 507.792969 39.957031 L 507.792969 41.085938 L 504.566406 41.085938 L 504.566406 35.453125 Z M 507.792969 35.453125 " fill-opacity="1" fill-rule="nonzero"/><path fill="#dc4e27" d="M 510.570312 35.453125 L 511.851562 35.453125 L 511.851562 41.085938 L 510.570312 41.085938 Z M 510.570312 35.453125 " fill-opacity="1" fill-rule="nonzero"/><path fill="#dc4e27" d="M 516 37.59375 L 516 41.085938 L 514.71875 41.085938 L 514.71875 35.453125 L 516 35.453125 L 518.238281 38.953125 L 518.253906 38.953125 L 518.253906 35.453125 L 519.535156 35.453125 L 519.535156 41.085938 L 518.253906 41.085938 L 516.015625 37.59375 Z M 516 37.59375 " fill-opacity="1" fill-rule="nonzero"/><path fill="#dc4e27" d="M 527.492188 37.929688 L 527.492188 39.15625 C 527.34375 39.828125 527.023438 40.332031 526.53125 40.675781 C 526.046875 41.019531 525.496094 41.191406 524.890625 41.191406 C 524.128906 41.191406 523.484375 40.90625 522.953125 40.339844 C 522.417969 39.769531 522.152344 39.082031 522.152344 38.277344 C 522.152344 37.457031 522.414062 36.761719 522.933594 36.199219 C 523.453125 35.636719 524.109375 35.355469 524.890625 35.355469 C 525.808594 35.355469 526.53125 35.675781 527.066406 36.3125 L 526.222656 37.238281 C 525.921875 36.753906 525.503906 36.507812 524.96875 36.507812 C 524.570312 36.507812 524.234375 36.683594 523.957031 37.023438 C 523.675781 37.367188 523.539062 37.785156 523.539062 38.277344 C 523.539062 38.753906 523.675781 39.160156 523.957031 39.503906 C 524.234375 39.839844 524.570312 40.007812 524.96875 40.007812 C 525.292969 40.007812 525.578125 39.910156 525.820312 39.714844 C 526.0625 39.515625 526.1875 39.253906 526.1875 38.925781 L 524.890625 38.925781 L 524.890625 37.929688 Z M 527.492188 37.929688 " fill-opacity="1" fill-rule="nonzero"/><path fill="#2c2c2c" d="M 360.179688 37.671875 L 361.882812 37.671875 L 361.882812 39.378906 L 360.179688 39.378906 M 363.589844 37.671875 L 365.296875 37.671875 L 365.296875 39.378906 L 363.589844 39.378906 M 367 37.671875 L 368.707031 37.671875 L 368.707031 39.378906 L 367 39.378906 M 370.414062 37.671875 L 372.117188 37.671875 L 372.117188 39.378906 L 370.414062 39.378906 M 373.824219 37.671875 L 375.53125 37.671875 L 375.53125 39.378906 L 373.824219 39.378906 M 377.234375 37.671875 L 378.941406 37.671875 L 378.941406 39.378906 L 377.234375 39.378906 M 380.648438 37.671875 L 382.351562 37.671875 L 382.351562 39.378906 L 380.648438 39.378906 M 384.058594 37.671875 L 385.765625 37.671875 L 385.765625 39.378906 L 384.058594 39.378906 M 387.46875 37.671875 L 389.175781 37.671875 L 389.175781 39.378906 L 387.46875 39.378906 M 390.882812 37.671875 L 392.585938 37.671875 L 392.585938 39.378906 L 390.882812 39.378906 M 394.292969 37.671875 L 396 37.671875 L 396 39.378906 L 394.292969 39.378906 M 397.703125 37.671875 L 399.410156 37.671875 L 399.410156 39.378906 L 397.703125 39.378906 M 401.117188 37.671875 L 402.824219 37.671875 L 402.824219 39.378906 L 401.117188 39.378906 M 404.527344 37.671875 L 406.234375 37.671875 L 406.234375 39.378906 L 404.527344 39.378906 M 407.941406 37.671875 L 409.644531 37.671875 L 409.644531 39.378906 L 407.941406 39.378906 M 411.351562 37.671875 L 413.058594 37.671875 L 413.058594 39.378906 L 411.351562 39.378906 M 414.761719 37.671875 L 416.46875 37.671875 L 416.46875 39.378906 L 414.761719 39.378906 M 418.175781 37.671875 L 419.878906 37.671875 L 419.878906 39.378906 L 418.175781 39.378906 " fill-opacity="1" fill-rule="nonzero"/><path fill="#ffffff" d="M 386.511719 49.101562 L 386.242188 45.761719 L 386.207031 45.761719 L 385.054688 49.066406 L 384.289062 49.066406 L 383.132812 45.761719 L 383.109375 45.761719 L 382.839844 49.101562 L 381.554688 49.101562 L 382.058594 43.46875 L 383.425781 43.46875 L 384.671875 46.71875 L 385.925781 43.46875 L 387.285156 43.46875 L 387.789062 49.101562 Z M 386.511719 49.101562 " fill-opacity="1" fill-rule="nonzero"/><path fill="#ffffff" d="M 389.742188 43.46875 L 391.289062 43.46875 L 392.460938 45.273438 L 393.632812 43.46875 L 395.171875 43.46875 L 393.101562 46.578125 L 393.101562 49.101562 L 391.8125 49.101562 L 391.8125 46.578125 Z M 389.742188 43.46875 " fill-opacity="1" fill-rule="nonzero"/></svg>