<svg xmlns="http://www.w3.org/2000/svg" xmlns:xlink="http://www.w3.org/1999/xlink" width="500" zoomAndPan="magnify" viewBox="0 0 375 374.999991" height="500" preserveAspectRatio="xMidYMid meet" version="1.0"><defs><clipPath id="2180222fb2"><path d="M 29.890625 68 L 253 68 L 253 361.585938 L 29.890625 361.585938 Z M 29.890625 68 " clip-rule="nonzero"/></clipPath><clipPath id="b09eae3fca"><path d="M 176 13.585938 L 344.890625 13.585938 L 344.890625 204 L 176 204 Z M 176 13.585938 " clip-rule="nonzero"/></clipPath></defs><g clip-path="url(#2180222fb2)"><path fill="#ffc95c" d="M 141.429688 68.945312 C 141.417969 68.960938 107.445312 111.390625 29.863281 124.019531 L 29.863281 228.300781 C 29.863281 267.484375 48.011719 304.648438 76.691406 327.292969 C 93.007812 340.183594 113.589844 353.445312 141.429688 361.355469 C 169.265625 353.445312 189.847656 340.183594 206.167969 327.292969 C 234.84375 304.648438 252.992188 267.484375 252.992188 228.300781 L 252.992188 124.019531 C 175.410156 111.390625 141.4375 68.960938 141.429688 68.945312 " fill-opacity="1" fill-rule="nonzero"/></g><path fill="#e59328" d="M 163.324219 98.007812 C 163.324219 130.023438 179.175781 159.957031 205.210938 178.054688 L 202.78125 202.242188 L 199.539062 234.546875 L 224.265625 213.539062 L 246.777344 194.417969 C 248.84375 194.714844 250.917969 194.933594 252.992188 195.097656 L 252.992188 124.019531 C 210.957031 117.179688 181.730469 101.589844 163.765625 88.738281 C 163.476562 91.789062 163.324219 94.882812 163.324219 98.007812 " fill-opacity="1" fill-rule="nonzero"/><path fill="#ffffff" d="M 141.429688 106.445312 C 141.421875 106.449219 107.507812 139.578125 57.914062 145.730469 L 57.914062 228.183594 C 57.914062 254.804688 70.648438 282.882812 90.398438 300.457031 C 102.039062 310.8125 120.414062 322.351562 141.429688 329.707031 C 162.441406 322.351562 180.816406 310.8125 192.457031 300.457031 C 212.207031 282.882812 224.9375 254.804688 224.9375 228.183594 L 224.9375 145.730469 C 175.347656 139.578125 141.429688 106.449219 141.429688 106.445312 " fill-opacity="1" fill-rule="nonzero"/><path fill="#e6ebef" d="M 205.210938 178.054688 L 202.78125 202.242188 L 199.539062 234.546875 L 224.265625 213.539062 L 224.9375 212.96875 L 224.9375 145.730469 C 201.625 142.839844 181.777344 133.984375 167.289062 125.414062 C 173.515625 146.570312 186.816406 165.269531 205.210938 178.054688 " fill-opacity="1" fill-rule="nonzero"/><path fill="#ff7d5f" d="M 175.347656 274.339844 L 107.507812 274.339844 L 107.507812 206.421875 L 175.347656 206.421875 L 175.347656 274.339844 " fill-opacity="1" fill-rule="nonzero"/><path fill="#e7e7f2" d="M 141.429688 161.015625 C 126.972656 161.015625 115.25 172.75 115.25 187.226562 L 115.25 206.421875 L 130.882812 206.421875 L 130.882812 187.300781 C 130.882812 181.472656 135.605469 176.75 141.429688 176.75 C 147.25 176.75 151.972656 181.472656 151.972656 187.300781 L 151.972656 206.421875 L 167.605469 206.421875 L 167.605469 187.226562 C 167.605469 172.75 155.882812 161.015625 141.429688 161.015625 " fill-opacity="1" fill-rule="nonzero"/><path fill="#db4942" d="M 151.867188 234.554688 C 151.867188 228.78125 147.195312 224.101562 141.429688 224.101562 C 135.660156 224.101562 130.988281 228.78125 130.988281 234.554688 C 130.988281 238.089844 132.75 241.210938 135.433594 243.101562 L 135.433594 250.660156 C 135.433594 253.972656 138.117188 256.660156 141.429688 256.660156 C 144.738281 256.660156 147.421875 253.972656 147.421875 250.660156 L 147.421875 243.101562 C 150.109375 241.210938 151.867188 238.089844 151.867188 234.554688 " fill-opacity="1" fill-rule="nonzero"/><g clip-path="url(#b09eae3fca)"><path fill="#9dd5f4" d="M 176.40625 98.007812 C 176.40625 51.449219 214.105469 13.707031 260.605469 13.707031 C 307.113281 13.707031 344.8125 51.449219 344.8125 98.007812 C 344.8125 144.566406 307.113281 182.308594 260.605469 182.308594 C 254.566406 182.308594 248.683594 181.65625 243 180.449219 L 215.800781 203.554688 L 219.039062 171.308594 C 193.585938 156.804688 176.40625 129.425781 176.40625 98.007812 " fill-opacity="1" fill-rule="nonzero"/></g><path fill="#ffffff" d="M 255.695312 124.488281 C 254.136719 124.488281 252.578125 123.890625 251.390625 122.699219 L 236.121094 107.414062 C 233.746094 105.035156 233.746094 101.171875 236.121094 98.792969 C 238.5 96.40625 242.359375 96.40625 244.738281 98.792969 L 255.695312 109.761719 L 287.160156 78.265625 C 289.535156 75.882812 293.394531 75.882812 295.769531 78.265625 C 298.152344 80.648438 298.152344 84.507812 295.769531 86.890625 L 260.003906 122.699219 C 258.8125 123.890625 257.253906 124.488281 255.695312 124.488281 " fill-opacity="1" fill-rule="nonzero"/></svg>