<svg xmlns="http://www.w3.org/2000/svg" xmlns:xlink="http://www.w3.org/1999/xlink" width="500" zoomAndPan="magnify" viewBox="0 0 375 374.999991" height="500" preserveAspectRatio="xMidYMid meet" version="1.0"><path fill="#c87c57" d="M 142.359375 134.972656 C 139.042969 130.175781 143.175781 127.929688 146.648438 123.132812 C 150.117188 118.335938 160.578125 116.804688 166.597656 112.519531 C 176.753906 105.273438 162.109375 93.996094 171.601562 82.464844 C 173.4375 80.21875 179.613281 78.789062 181.296875 77.5625 C 182.929688 76.339844 183.132812 71.289062 183.132812 71.289062 C 194.308594 73.378906 195.480469 73.074219 213.1875 83.789062 L 213.597656 87.617188 C 208.546875 97.617188 209.820312 96.800781 206.453125 96.648438 C 203.542969 96.496094 185.9375 96.75 183.695312 97.109375 C 181.449219 97.464844 179.355469 99.304688 178.183594 100.679688 C 176.652344 102.570312 177.058594 105.886719 177.109375 126.707031 C 177.160156 142.015625 176.242188 148.851562 180.480469 151.25 C 180.222656 151.300781 178.539062 154.71875 176.039062 155.332031 C 174.761719 155.691406 171.445312 154.566406 171.445312 154.566406 C 151.597656 149.160156 152.257812 150.078125 151.902344 147.015625 C 151.546875 143.597656 145.726562 139.769531 142.359375 134.972656 Z M 299.835938 115.324219 C 298.664062 105.628906 296.417969 80.625 287.539062 84.707031 C 282.488281 87.003906 286.160156 107.976562 286.875 112.773438 C 287.230469 126.859375 287.539062 126.757812 286.671875 126.859375 C 282.996094 122.46875 284.679688 125.890625 280.191406 111.957031 C 280.191406 111.957031 277.28125 100.070312 277.078125 98.488281 C 276.875 96.90625 277.332031 93.230469 276.71875 90.578125 C 275.800781 86.648438 268.554688 85.832031 265.035156 89.351562 C 260.644531 93.742188 267.023438 120.226562 269.628906 126.347656 C 266.15625 124.511719 260.542969 111.039062 259.777344 108.386719 C 259.0625 105.886719 259.269531 98.179688 259.371094 95.117188 C 259.523438 92.058594 258.554688 90.269531 257.738281 88.484375 C 256.871094 86.699219 255.949219 86.597656 253.042969 86.648438 C 250.132812 86.699219 248.449219 92.160156 247.632812 94.964844 C 246.816406 97.773438 247.632812 115.785156 247.632812 115.785156 C 248.398438 119.96875 249.265625 121.753906 256.972656 135.941406 C 253.757812 138.1875 251.207031 135.6875 247.835938 133.136719 C 246.5625 132.164062 232.222656 119.355469 230.386719 117.46875 C 225.792969 112.621094 220.585938 103.691406 215.179688 104.863281 C 205.074219 107.109375 226.558594 130.890625 235.335938 143.441406 C 236.253906 144.769531 245.03125 150.535156 246.152344 151.660156 C 257.429688 162.476562 256.105469 163.089844 262.636719 166.152344 C 262.636719 166.152344 274.882812 176.511719 278.097656 178.550781 C 283.507812 181.917969 281.566406 191.15625 280.140625 197.125 C 305.703125 181.5625 296.367188 187.582031 320.757812 170.792969 C 321.882812 144.769531 302.746094 139.617188 299.835938 115.324219 Z M 191.652344 300.867188 C 173.640625 304.238281 129.398438 311.636719 112.40625 304.796875 C 104.75 302.859375 107.609375 301.378906 113.019531 315.871094 C 115.210938 321.839844 118.988281 327.503906 118.988281 327.503906 C 123.582031 331.894531 169.761719 334.242188 213.75 325.566406 C 200.890625 310.71875 205.941406 316.332031 191.652344 300.867188 Z M 191.652344 300.867188 " fill-opacity="1" fill-rule="nonzero"/><path fill="#f2e2ce" d="M 330.65625 204.832031 C 332.394531 198.859375 325.914062 168.292969 325.199219 164.773438 C 315.960938 173.90625 323.566406 168.191406 285.597656 192.941406 L 252.789062 209.578125 C 252.789062 209.578125 262.226562 229.070312 261.054688 230.550781 C 256.921875 235.601562 254.828125 237.796875 256.054688 242.746094 C 262.378906 284.488281 262.433594 273.925781 256.460938 293.011719 C 241.203125 272.035156 254.011719 292.398438 211.707031 222.589844 C 209.003906 218.148438 209.308594 220.90625 212.730469 207.996094 C 221.300781 190.289062 217.527344 191.921875 207.269531 169.722656 C 203.390625 161.304688 202.675781 159.621094 207.472656 152.679688 C 180.324219 152.527344 184.664062 152.984375 180.375 151.453125 C 179.867188 152.628906 177.214844 156.097656 174.761719 155.640625 C 170.070312 154.71875 166.089844 153.085938 155.578125 149.414062 L 153.332031 157.882812 L 154.554688 158.242188 C 147.921875 157.882812 148.839844 158.140625 149.402344 157.527344 C 151.648438 155.28125 153.894531 151.148438 152.972656 147.21875 C 152.207031 143.800781 149.808594 143.851562 146.390625 138.289062 C 133.582031 117.417969 165.832031 122.011719 170.425781 107.058594 C 172.519531 100.273438 167.058594 91.648438 167.773438 87.617188 C 169.355469 78.839844 175.375 81.339844 179.558594 79.453125 C 182.570312 78.074219 187.675781 73.429688 186.652344 71.492188 C 199.511719 73.890625 210.230469 83.175781 222.066406 88.6875 C 225.539062 90.320312 243.246094 96.242188 243.246094 96.242188 C 236 85.066406 237.222656 87.3125 226.914062 73.636719 C 214.769531 57.457031 219.261719 63.683594 218.085938 54.601562 C 217.425781 49.394531 213.289062 50.621094 213.851562 34.445312 C 214.003906 30.566406 212.984375 26.839844 212.984375 26.839844 C 207.371094 16.378906 202.523438 10.410156 189.460938 5.050781 C 184.460938 3.011719 173.488281 6.734375 169.40625 5.96875 C 166.855469 5.511719 163.433594 3.113281 159.503906 2.449219 C 152.71875 1.277344 130.675781 11.277344 125.0625 15.410156 C 123.171875 16.789062 118.683594 20.871094 117.152344 21.941406 C 115.621094 23.015625 112.609375 23.421875 110.621094 25.363281 C 108.628906 27.300781 110.007812 27.25 108.476562 30.820312 C 106.945312 34.394531 107.660156 45.773438 107.609375 48.070312 C 107.457031 52.664062 103.628906 60.0625 102.964844 70.164062 C 105.464844 67.664062 106.332031 65.777344 93.78125 82.359375 C 115.210938 73.226562 110.519531 74.910156 100.515625 79.910156 L 89.035156 105.222656 C 89.035156 105.222656 85.359375 120.019531 85.054688 122.265625 C 84.542969 126.195312 70.308594 142.523438 67.347656 146.65625 C 64.949219 150.027344 60.917969 161.507812 60.765625 165.234375 C 60.609375 168.957031 64.234375 176.050781 65.253906 179.316406 C 68.417969 189.371094 55.8125 205.648438 53.3125 213.351562 C 52.089844 217.230469 54.179688 227.285156 56.019531 230.449219 C 57.855469 233.613281 71.683594 241.878906 73.777344 244.582031 C 75.816406 247.289062 76.992188 254.226562 78.011719 256.726562 C 79.03125 259.230469 81.585938 259.175781 83.269531 261.984375 C 85.308594 265.351562 85.308594 268.71875 85.617188 268.667969 C 85.871094 268.617188 85.511719 266.421875 85.769531 263.207031 C 85.566406 277.292969 95.3125 283.160156 108.070312 303.625 C 108.070312 303.625 118.886719 306.429688 126.285156 307.246094 C 143.585938 309.136719 184.664062 302.910156 191.347656 300.96875 C 220.640625 333.679688 244.570312 361.949219 274.21875 370.523438 C 278.351562 371.695312 283.863281 370.320312 286.261719 369.859375 C 288.660156 369.402344 293.101562 364.910156 295.039062 362.460938 C 296.980469 360.011719 300.753906 349.957031 300.753906 349.957031 C 314.890625 285.765625 327.546875 234.886719 328.515625 224.9375 C 328.769531 222.285156 328.003906 217.4375 328.105469 214.273438 C 328.3125 211.109375 329.945312 207.382812 330.65625 204.832031 Z M 105.058594 67.816406 C 105.566406 67.207031 105.671875 67 107.199219 65.523438 C 105.925781 66.847656 105.160156 67.714844 105.058594 67.816406 Z M 92.25 186.410156 C 91.175781 189.214844 92.402344 190.542969 94.339844 194.117188 C 97.710938 200.289062 98.578125 210.851562 92.757812 215.496094 C 89.289062 218.253906 86.484375 225.445312 87.300781 228.558594 C 88.117188 231.671875 90.105469 239.019531 90.667969 243.359375 C 91.125 247.339844 86.226562 260.453125 86.175781 260.503906 C 86.484375 258.769531 89.699219 248.15625 89.902344 246.214844 C 90.921875 237.4375 86.277344 231.007812 86.535156 226.824219 C 87.351562 213.660156 101.894531 215.496094 93.984375 195.542969 C 92.914062 192.890625 89.542969 188.09375 93.066406 180.898438 C 93.933594 179.113281 94.238281 179.46875 99.75 173.449219 C 103.167969 169.722656 106.078125 166.152344 104.140625 170.898438 C 96.894531 176.664062 95.566406 177.734375 92.25 186.410156 Z M 92.25 186.410156 " fill-opacity="1" fill-rule="nonzero"/><path fill="#f3aa37" d="M 256.769531 136.453125 C 252.023438 137.828125 248.808594 134.460938 231.101562 118.695312 C 231.101562 118.695312 223.546875 108.132812 221.148438 106.804688 C 218.75 105.476562 215.894531 104.152344 214.667969 105.121094 C 213.445312 106.089844 211.554688 108.027344 212.269531 109.710938 C 212.984375 111.398438 217.167969 119.050781 219.109375 121.910156 C 235.386719 145.535156 237.582031 145.128906 246.816406 152.527344 L 184 152.527344 C 184 152.527344 176.398438 153.085938 176.703125 145.023438 C 177.007812 136.910156 176.703125 103.894531 176.703125 103.894531 C 176.703125 103.894531 180.070312 96.699219 185.683594 96.546875 C 191.296875 96.394531 247.328125 96.292969 247.328125 96.292969 C 247.277344 124.152344 246.152344 113.691406 256.769531 136.453125 Z M 263.199219 96.242188 L 259.371094 96.496094 C 259.371094 110.324219 260.390625 115.988281 268.757812 125.074219 C 269.78125 121.703125 265.1875 119.050781 263.199219 96.242188 Z M 284.988281 96.242188 L 277.179688 96.242188 L 277.433594 102.210938 C 283.609375 123.695312 282.894531 124.96875 287.128906 127.113281 C 285.957031 106.445312 287.945312 121.042969 284.988281 96.242188 Z M 189.816406 7.550781 C 189.96875 17.195312 198.339844 21.023438 199.921875 10.921875 C 199.105469 10.15625 193.949219 6.53125 189.765625 5.101562 C 187.777344 4.441406 181.246094 4.542969 179.203125 5.101562 C 175.222656 13.828125 182.980469 17.09375 189.816406 7.550781 Z M 135.265625 42.761719 C 130.367188 45.570312 132.714844 46.285156 132.867188 40.621094 C 133.328125 25.871094 120.824219 28.679688 122.714844 43.324219 C 122.101562 42.507812 121.640625 41.742188 120.316406 40.363281 C 119.652344 42.8125 118.121094 52.304688 118.121094 56.335938 C 118.121094 56.640625 120.875 54.089844 144.707031 48.222656 C 149.808594 42.558594 144.402344 37.609375 135.265625 42.761719 Z M 155.117188 20.308594 C 156.136719 23.574219 156.238281 27.863281 155.066406 30.921875 C 152.414062 38.015625 145.675781 33.527344 145.574219 25.105469 C 136.949219 37.097656 128.429688 28.523438 138.175781 17.859375 C 134.5 18.117188 128.632812 17.246094 127 14.03125 C 131.847656 11.175781 149.863281 2.550781 158.84375 2.804688 C 162.875 2.910156 167.058594 4.949219 168.4375 5.664062 C 167.210938 7.808594 164.25 10.359375 160.425781 11.839844 C 171.394531 14.492188 172.875 23.066406 164.609375 23.167969 C 161.699219 23.21875 158.027344 22.199219 155.117188 20.308594 Z M 146.902344 9.03125 C 142.613281 11.023438 145.574219 17.503906 149.914062 15.5625 C 154.199219 13.574219 151.238281 7.09375 146.902344 9.03125 Z M 172.261719 45.417969 C 160.324219 44.445312 161.085938 34.851562 173.4375 35.109375 C 162.617188 24.289062 173.285156 16.941406 182.316406 29.75 C 182.621094 30.160156 182.164062 29.546875 182.265625 26.839844 C 182.722656 11.226562 196.144531 16.378906 191.910156 31.433594 C 196.042969 27.8125 203.695312 25.105469 205.890625 28.933594 C 208.085938 32.761719 202.011719 37.660156 197.523438 39.394531 C 207.882812 41.945312 210.023438 50.058594 202.421875 50.671875 C 202.0625 50.773438 187.519531 45.363281 172.261719 45.417969 Z M 188.695312 38.527344 C 186.703125 34.242188 180.222656 37.199219 182.164062 41.539062 C 184.152344 45.824219 190.683594 42.8125 188.695312 38.527344 Z M 188.695312 38.527344 " fill-opacity="1" fill-rule="nonzero"/><path fill="#35312d" d="M 204.871094 68.789062 C 205.484375 67.5625 206.65625 68.53125 209.414062 69.910156 C 210.382812 70.371094 210.023438 71.847656 208.953125 71.847656 C 208.597656 71.847656 208.699219 71.847656 205.332031 70.164062 C 204.820312 69.910156 204.617188 69.296875 204.871094 68.789062 Z M 126.59375 63.070312 C 129.753906 63.070312 129.042969 60.316406 127.511719 60.726562 C 126.539062 60.980469 125.265625 61.132812 125.570312 62.308594 C 125.722656 62.765625 126.132812 63.070312 126.59375 63.070312 Z M 205.175781 106.089844 C 205.175781 118.847656 206.402344 124.765625 200.941406 124.613281 C 178.847656 124.152344 181.90625 127.828125 181.957031 105.578125 C 181.957031 101.496094 186.195312 101.445312 186.195312 101.394531 C 199.207031 101.394531 205.175781 99.761719 205.175781 106.089844 Z M 186.601562 103.4375 C 183.132812 103.4375 183.949219 104.8125 183.949219 120.429688 C 183.949219 123.335938 186.296875 122.570312 199.5625 122.570312 C 201.402344 122.570312 203.085938 122.828125 203.085938 119.613281 C 203.085938 103.4375 204.003906 103.4375 199.613281 103.4375 Z M 185.53125 109.710938 C 185.53125 114.457031 192.726562 114.457031 192.726562 109.710938 C 192.726562 104.917969 185.53125 104.917969 185.53125 109.710938 Z M 197.980469 113.285156 C 202.726562 113.285156 202.726562 106.089844 197.980469 106.089844 C 193.183594 106.089844 193.183594 113.285156 197.980469 113.285156 Z M 189.96875 117.417969 C 189.96875 122.164062 197.164062 122.164062 197.164062 117.417969 C 197.164062 112.671875 189.96875 112.671875 189.96875 117.417969 Z M 329.332031 221.621094 C 330.554688 232.234375 324.125 250.144531 320.859375 264.789062 C 317.03125 282.039062 321.523438 266.933594 313.15625 300.207031 C 302.847656 341.128906 304.070312 353.9375 293.660156 365.574219 C 274.527344 387.160156 233.039062 348.683594 213.851562 327.199219 C 211.351562 324.394531 179.714844 338.121094 122.253906 330.007812 C 134.550781 344.753906 130.316406 361.339844 122.40625 358.277344 C 114.90625 355.417969 119.140625 337.761719 117.40625 344.957031 C 114.140625 358.378906 114.292969 358.53125 113.222656 358.53125 C 112.558594 358.53125 112.046875 357.917969 112.253906 357.253906 C 122.152344 318.984375 116.027344 328.425781 115.109375 337.046875 C 114.550781 342.253906 114.140625 346.691406 111.640625 350.722656 C 110.058594 353.277344 107.914062 355.417969 104.957031 355.417969 C 94.648438 355.417969 101.027344 338.222656 107.914062 332.710938 L 107.863281 332.660156 C 112.40625 328.167969 116.539062 326.433594 116.488281 326.332031 C 116.488281 326.230469 116.078125 326.484375 110.671875 312.402344 C 104.546875 296.378906 85.359375 276.015625 83.269531 266.578125 C 81.789062 259.789062 79.390625 263.3125 76.789062 257.390625 C 75.257812 253.972656 76.632812 246.726562 67.960938 241.929688 C 49.078125 231.164062 44.535156 221.722656 61.683594 192.839844 C 74.132812 171.816406 41.015625 174.929688 76.683594 132.828125 C 79.492188 129.511719 81.585938 127.011719 83.371094 122.164062 C 78.421875 119.359375 75.460938 113.488281 75.5625 108.132812 C 75.664062 100.886719 84.644531 91.496094 101.585938 70.675781 C 101.996094 69.449219 102.863281 64.757812 103.015625 63.226562 C 103.425781 60.011719 106.742188 52.050781 106.640625 44.753906 C 106.433594 30.71875 106.589844 25.003906 114.089844 22.148438 C 120.519531 19.699219 121.488281 12.757812 145.574219 4.386719 C 153.484375 1.632812 159.507812 0 167.210938 3.726562 C 171.191406 5.664062 170.324219 5.917969 176.703125 4.644531 C 188.03125 2.347656 192.675781 4.234375 201.65625 11.023438 C 207.523438 15.460938 213.800781 23.117188 214.566406 30.210938 C 215.128906 35.515625 212.421875 39.292969 217.679688 51.027344 C 219.058594 54.140625 219.925781 57.152344 219.109375 61.644531 C 221.761719 66.183594 235.285156 81.597656 241.917969 92.261719 C 244.214844 95.984375 242.9375 95.375 246.664062 95.375 C 248.5 82.308594 260.339844 82.105469 260.238281 95.375 L 262.226562 95.375 C 262.328125 93.382812 262.839844 90.425781 264.117188 88.894531 C 267.28125 84.964844 276.769531 83.535156 277.84375 92.820312 C 278.25 96.242188 276.71875 95.375 283.761719 95.375 C 283.710938 82.359375 289.375 81.1875 293.152344 84.8125 C 298.355469 89.8125 301.164062 117.316406 301.367188 118.285156 C 304.886719 135.328125 318.15625 145.789062 321.066406 159.976562 C 322.699219 159.464844 325.65625 161.253906 325.65625 163.242188 C 326.730469 166.867188 329.179688 177.070312 330.761719 188.65625 C 333.976562 212.484375 327.546875 206.15625 329.332031 221.621094 Z M 113.679688 333.015625 C 111.945312 335.464844 110.519531 338.171875 109.546875 341.335938 C 109.140625 342.609375 107.199219 342.050781 107.609375 340.722656 C 109.957031 333.066406 115.417969 328.015625 109.34375 334.089844 C 109.445312 333.988281 104.496094 338.886719 102.097656 345.671875 C 99.445312 353.171875 105.671875 356.542969 110.007812 349.601562 C 113.171875 344.449219 112.710938 337.355469 113.679688 333.015625 Z M 278.097656 97.515625 C 278.148438 99.148438 278.25 100.78125 278.761719 102.570312 C 288.304688 136.605469 286.058594 123.847656 286.109375 119.355469 C 286.210938 108.742188 284.476562 107.875 283.964844 97.464844 L 278.097656 97.464844 Z M 267.433594 122.777344 C 269.167969 125.277344 265.699219 120.886719 263.757812 110.070312 C 263.453125 108.4375 263.503906 109.152344 262.433594 99.148438 C 262.226562 97.109375 262.789062 97.515625 260.289062 97.515625 C 260.1875 107.621094 261.511719 114.152344 267.433594 122.777344 Z M 248.195312 111.449219 C 248.859375 120.175781 249.417969 119.96875 251.511719 120.070312 C 254.980469 120.226562 255.644531 117.671875 256.714844 119.101562 C 257.992188 120.835938 253.398438 122.316406 250.746094 122.0625 C 257.226562 134.257812 259.523438 138.339844 257.839844 142.117188 C 257.585938 142.625 257.023438 142.882812 256.511719 142.625 C 255.132812 142.015625 256.871094 141.042969 256.003906 137.21875 C 253.042969 138.289062 250.898438 137.625 237.375 125.683594 C 230.488281 119.613281 230.691406 119.867188 229.007812 117.777344 C 225.792969 113.796875 222.222656 107.417969 217.984375 106.242188 C 212.167969 104.710938 213.238281 109.867188 216.199219 115.273438 C 218.699219 114.304688 219.515625 112.570312 220.484375 113.746094 C 221.507812 115.019531 218.75 116.398438 217.21875 117.0625 C 220.894531 123.234375 225.742188 129.257812 230.335938 135.277344 C 231.253906 134.511719 232.273438 133.796875 233.550781 132.929688 C 234.671875 132.214844 235.792969 133.902344 234.671875 134.667969 C 233.394531 135.484375 232.476562 136.195312 231.558594 136.910156 C 232.988281 138.75 232.375 138.699219 234.058594 137.371094 C 235.132812 136.554688 236.40625 138.136719 235.335938 138.953125 L 233.957031 140.023438 C 237.53125 144.617188 239.824219 145.484375 244.777344 149.363281 C 255.339844 157.730469 254.980469 160.742188 262.738281 165.335938 C 265.085938 166.710938 276.414062 176.714844 277.792969 177.277344 C 283.097656 178.859375 283.457031 188.605469 282.640625 194.167969 C 291.519531 187.890625 310.757812 175.847656 319.429688 168.601562 C 319.535156 168.601562 320.09375 163.191406 318.460938 158.089844 C 313.511719 142.78125 301.980469 135.125 298.96875 116.550781 C 297.183594 117.214844 292.894531 117.980469 293.101562 116.089844 C 293.253906 114.664062 294.683594 115.53125 297.03125 115.019531 C 299.171875 114.5625 298.714844 114.613281 298.507812 112.367188 C 298.101562 107.570312 295.242188 89.660156 291.773438 86.289062 C 290.445312 85.015625 289.785156 85.269531 288.863281 85.269531 C 282.742188 86.445312 288.097656 110.53125 288.046875 119.355469 C 287.945312 129.820312 291.109375 128.949219 289.988281 130.53125 C 288.609375 132.371094 284.476562 126.605469 283.40625 124.765625 C 282.28125 122.878906 282.128906 121.910156 280.191406 115.632812 C 279.269531 112.722656 279.933594 113.183594 277.996094 113.949219 C 277.128906 114.253906 275.1875 114.867188 274.679688 114.867188 C 273.453125 114.867188 273.300781 113.082031 274.476562 112.824219 C 276.261719 112.46875 277.636719 111.957031 278.964844 111.292969 C 278.097656 108.132812 277.382812 105.324219 276.769531 103.078125 C 274.832031 96.191406 277.945312 89.300781 272.230469 88.027344 C 257.992188 84.914062 266.921875 116.398438 269.320312 121.550781 C 271.105469 125.378906 273.300781 131.757812 273.300781 133.695312 C 273.300781 134.769531 271.820312 135.125 271.363281 134.105469 C 266.257812 123.183594 266.667969 125.890625 263.402344 120.175781 C 254.980469 105.222656 260.1875 94.761719 257.125 89.761719 C 253.550781 83.941406 248.960938 90.320312 248.550781 98.230469 C 248.296875 103.128906 247.992188 108.234375 248.195312 111.449219 Z M 280.445312 183.960938 C 279.933594 181.613281 278.558594 179.675781 277.230469 179.265625 C 276.363281 179.011719 274.21875 177.222656 269.066406 172.9375 C 256.820312 162.730469 259.625 166.96875 253.042969 159.824219 C 251.410156 158.089844 249.625 156.148438 246.816406 153.648438 L 208.1875 153.648438 C 205.484375 158.140625 206.199219 162.070312 207.933594 166.816406 C 213.238281 181.410156 222.882812 185.03125 216.300781 203.199219 C 216.25 203.402344 210.6875 215.90625 210.6875 218.609375 C 233.855469 256.066406 229.875 248.308594 238.039062 262.75 C 242.121094 269.996094 248.652344 281.273438 256.257812 291.019531 C 256.308594 291.019531 256.207031 291.222656 256.714844 289.691406 C 261.5625 274.996094 260.492188 281.324219 255.289062 242.796875 C 254.371094 235.753906 256.871094 233.714844 260.1875 229.835938 C 251.410156 206.871094 248.449219 210.292969 257.53125 202.433594 C 267.6875 193.65625 273.605469 191.664062 280.445312 183.960938 Z M 265.492188 215.496094 C 264.832031 214.882812 263.503906 215.546875 266.566406 221.671875 C 267.125 220.957031 267.535156 220.34375 267.585938 220.242188 C 266.921875 218.355469 266.15625 216.160156 265.492188 215.496094 Z M 181.039062 99.8125 C 179.304688 101.292969 178.132812 103.128906 178.183594 105.375 C 178.847656 144.566406 177.367188 147.320312 180.582031 150.332031 C 182.570312 152.167969 180.835938 151.609375 244.367188 151.609375 C 238.140625 146.554688 236.558594 146.402344 231.8125 140.535156 C 228.394531 136.25 211.402344 115.171875 211.761719 108.691406 C 212.015625 104.609375 214.617188 103.230469 218.546875 104.304688 C 223.648438 105.679688 227.375 112.417969 230.640625 116.5 C 232.121094 118.335938 231.867188 118.03125 238.804688 124.152344 C 252.632812 136.351562 253.757812 135.839844 255.339844 135.277344 C 245.542969 118.796875 245.4375 115.886719 246.613281 97.515625 C 185.835938 97.515625 184.664062 96.699219 181.039062 99.8125 Z M 130.726562 130.074219 C 135.421875 110.582031 156.085938 118.695312 156.546875 104.457031 C 156.648438 100.578125 154.199219 99.558594 154.25 94.863281 C 154.351562 83.023438 165.375 82.207031 168.230469 79.65625 C 171.445312 76.851562 173.183594 71.1875 173.078125 71.1875 C 168.128906 70.777344 164.863281 70.625 164.609375 70.574219 C 163.792969 72.003906 163.179688 73.175781 162.515625 74.65625 C 158.027344 84.964844 147.972656 72.613281 144.144531 80.625 C 141.390625 86.445312 132.152344 86.1875 134.960938 76.136719 C 133.890625 77.105469 132.816406 78.484375 132.152344 80.269531 C 127.410156 93.332031 145.625 87.769531 148.789062 95.015625 C 152.566406 103.742188 136.644531 109.355469 131.390625 114.101562 C 123.222656 121.5 124.703125 124.714844 127.101562 135.484375 C 129.960938 148.445312 128.9375 152.324219 117 162.171875 C 112.152344 166.152344 110.464844 166.355469 106.078125 169.722656 C 106.128906 169.671875 105.925781 170.792969 105.109375 172.429688 C 103.679688 175.234375 101.585938 176.203125 102.148438 179.367188 C 102.558594 181.613281 104.546875 182.734375 103.117188 186.5625 C 106.230469 183.707031 103.117188 174.316406 112.304688 170.183594 C 117.917969 167.683594 124.089844 168.550781 132.867188 163.652344 C 132.867188 163.652344 132.917969 163.652344 132.917969 163.601562 C 132 162.988281 146.390625 158.140625 135.0625 143.953125 C 132.359375 140.6875 129.144531 136.707031 130.726562 130.074219 Z M 146.339844 134.207031 C 147.820312 138.085938 155.882812 140.6875 157.109375 149.003906 C 159.609375 150.28125 163.078125 151.199219 164.300781 151.609375 C 175.070312 154.976562 176.089844 155.640625 178.949219 151.660156 C 179 151.609375 175.988281 148.800781 176.140625 143.238281 C 176.089844 143.238281 176.140625 143.390625 176.140625 139.71875 C 168.589844 135.378906 172.417969 133.59375 173.386719 134.820312 C 173.742188 135.277344 174.660156 136.195312 176.140625 137.269531 C 176.140625 130.738281 177.417969 133.441406 171.242188 131.503906 C 169.148438 130.839844 165.882812 128.695312 166.753906 126.859375 C 167.621094 124.96875 172.210938 126.449219 176.089844 125.378906 C 176.089844 95.066406 172.160156 95.476562 206.757812 95.476562 C 207.933594 94.351562 208.699219 93.585938 209.769531 92.058594 C 204.566406 90.933594 201.503906 90.933594 200.585938 89.503906 C 199.664062 88.027344 202.167969 85.117188 203.59375 84.046875 C 205.789062 82.359375 208.597656 84.453125 212.066406 85.371094 C 212.167969 84.453125 212.320312 84.65625 211.605469 84.300781 C 179.816406 66.542969 196.707031 76.1875 196.808594 79.25 C 196.859375 81.035156 193.234375 84.914062 191.960938 84.914062 C 190.378906 84.914062 184.613281 79.09375 183.644531 77.921875 C 178.335938 84.351562 166.394531 79.910156 171.90625 96.90625 C 180.019531 122.316406 140.523438 118.695312 146.339844 134.207031 Z M 178.589844 169.058594 C 188.285156 176.917969 189.96875 182.125 197.980469 197.074219 C 205.839844 185.746094 204.769531 176.765625 192.625 169.265625 C 184.304688 164.109375 182.722656 159.621094 183.234375 153.597656 C 182.214844 153.496094 181.347656 153.242188 180.53125 152.832031 C 179.203125 154.773438 177.417969 156.457031 175.121094 156.457031 C 166.394531 156.457031 172.519531 150.945312 178.589844 169.058594 Z M 119.347656 50.417969 C 119.039062 51.589844 119.140625 53.632812 119.347656 54.90625 C 133.175781 47.761719 162.515625 44.34375 167.210938 44.242188 C 189.359375 43.78125 194.921875 47.710938 204.511719 51.183594 C 207.832031 52.355469 215.484375 56.03125 217.476562 58.886719 C 217.527344 55.621094 216.761719 53.886719 215.945312 52 C 210.433594 39.699219 213.238281 35.617188 212.679688 30.566406 C 211.964844 24.1875 205.941406 16.890625 200.585938 12.808594 C 191.859375 6.175781 187.828125 4.695312 177.265625 6.785156 C 170.578125 8.164062 171.039062 7.960938 166.496094 5.714844 C 159.351562 2.296875 153.894531 3.878906 146.441406 6.480469 C 138.429688 9.289062 131.695312 12.605469 127.359375 15.359375 C 121.796875 27.148438 125.519531 27.097656 119.347656 50.417969 Z M 117.457031 55.878906 C 117.050781 54.242188 116.949219 51.4375 117.355469 49.855469 C 123.378906 27.25 119.957031 28.269531 124.144531 17.402344 C 122.050781 18.984375 120.722656 20.308594 119.90625 21.175781 C 113.222656 27.964844 108.375 18.675781 108.730469 44.804688 C 108.832031 52.40625 105.414062 60.621094 105.109375 63.53125 C 104.035156 72.257812 103.476562 63.785156 117.457031 55.878906 Z M 96.28125 80.832031 C 111.128906 72.207031 127.460938 65.0625 173.335938 69.144531 C 196.144531 71.1875 191.960938 71.082031 213.800781 83.230469 C 220.535156 87.71875 227.9375 89.351562 240.746094 94.199219 C 239.265625 91.75 236.765625 88.128906 236.507812 87.769531 C 218.34375 75.625 211.863281 75.777344 213.1875 73.480469 C 213.800781 72.410156 214.820312 73.226562 215.585938 73.6875 C 222.222656 77.769531 221.457031 75.269531 232.886719 82.871094 C 222.324219 69.347656 218.699219 65.214844 215.738281 59.855469 C 213.445312 55.824219 191.601562 48.121094 186.960938 47.253906 C 166.496094 43.578125 132.511719 50.058594 119.191406 57.253906 C 114.191406 59.855469 110.671875 63.125 107.199219 67.257812 C 107.148438 67.308594 108.015625 66.847656 109.445312 66.390625 C 112.710938 65.417969 114.550781 65.46875 118.222656 64.246094 C 122.613281 62.765625 123.582031 61.386719 124.246094 62.765625 C 125.621094 65.417969 112.558594 67.5625 110.058594 68.328125 C 103.425781 70.371094 102.914062 72.5625 96.28125 80.832031 Z M 95.105469 165.84375 C 97.914062 157.882812 100.160156 156.300781 106.539062 150.433594 C 118.835938 139.15625 118.476562 136.402344 115.007812 128.441406 C 113.476562 124.917969 111.792969 120.734375 113.121094 117.113281 C 115.007812 112.109375 127.050781 108.539062 127.304688 98.382812 C 127.410156 94.863281 126.234375 91.699219 126.4375 85.21875 C 126.644531 78.328125 131.234375 71.03125 131.132812 71.03125 C 128.683594 71.238281 126.488281 71.441406 123.835938 71.898438 C 123.273438 77.308594 121.691406 79.503906 119.140625 84.300781 C 114.039062 93.691406 115.519531 96.546875 113.628906 100.222656 C 110.671875 105.988281 104.957031 106.804688 103.167969 113.898438 C 101.535156 120.277344 106.589844 130.023438 107.355469 135.378906 C 108.222656 141.300781 96.027344 151.402344 93.371094 160.230469 C 90.617188 169.058594 93.832031 169.417969 95.105469 165.84375 Z M 87.453125 201.207031 C 76.839844 192.6875 84.289062 185.183594 86.175781 180.898438 C 91.636719 168.703125 82.144531 165.640625 88.574219 153.035156 C 95.003906 140.433594 87.042969 143.238281 88.167969 129.972656 C 88.269531 127.929688 85.308594 127.265625 85.054688 134.359375 C 84.746094 143.136719 92.605469 139.972656 78.980469 157.222656 C 74.441406 162.9375 72.859375 166.96875 77.910156 175.234375 C 79.289062 177.53125 79.796875 177.785156 76.789062 181.765625 C 72.347656 187.6875 67.09375 191.054688 67.246094 198.707031 C 67.296875 200.339844 67.347656 204.628906 71.683594 206.054688 C 76.789062 207.738281 79.136719 203.707031 82.402344 208.148438 C 86.433594 213.558594 77.808594 220.597656 82.144531 230.855469 C 82.453125 232.488281 84.542969 231.875 84.1875 230.550781 C 84.289062 230.90625 81.738281 225.601562 86.328125 217.894531 C 89.136719 213.148438 95.71875 207.738281 87.453125 201.207031 Z M 184.40625 303.574219 C 168.84375 306.632812 158.179688 307.453125 144.402344 308.011719 C 103.679688 309.695312 107.507812 298.214844 112.660156 311.6875 C 118.324219 326.585938 117.867188 324.238281 118.886719 326.382812 C 118.886719 326.433594 168.488281 309.746094 184.40625 303.574219 Z M 120.316406 330.824219 C 120.621094 340.824219 117.867188 354.347656 123.171875 356.386719 C 128.835938 358.53125 131.132812 343.273438 120.316406 330.824219 Z M 211.554688 324.597656 C 202.777344 314.800781 196.503906 307.757812 191.910156 302.449219 C 187.46875 305.613281 127.253906 325.71875 121.234375 327.761719 C 151.289062 332.199219 181.804688 331.128906 211.554688 324.597656 Z M 329.023438 190.902344 C 327.699219 192.890625 326.21875 194.984375 323.871094 194.371094 C 319.839844 193.351562 319.535156 185.03125 319.074219 180.59375 C 317.796875 183.144531 318.257812 185.339844 318.972656 188.042969 C 319.839844 191.257812 317.085938 192.328125 316.371094 194.574219 C 316.164062 195.289062 316.980469 197.382812 317.390625 198.453125 C 319.789062 204.882812 319.429688 215.496094 312.59375 212.792969 C 309.734375 211.667969 309.175781 208.148438 309.226562 201.71875 C 309.226562 191.972656 305.246094 186.972656 304.480469 189.675781 C 304.070312 191.003906 310.246094 199.117188 306.726562 203.046875 C 305.859375 204.015625 304.785156 204.472656 303.714844 204.320312 C 300.753906 203.914062 299.9375 199.832031 299.171875 199.984375 C 298.355469 200.085938 298.101562 202.941406 299.9375 207.179688 C 307.796875 225.292969 302.488281 233.40625 295.957031 233.40625 C 291.007812 233.40625 290.90625 229.070312 291.671875 224.527344 C 293.101562 215.800781 288.152344 217.128906 285.445312 208.761719 C 284.882812 207.027344 283.710938 205.394531 282.996094 204.679688 C 281.976562 209.933594 289.019531 218.148438 288.761719 223.8125 C 288.304688 232.949219 280.75 231.46875 278.964844 228.558594 C 276.875 225.191406 278.300781 219.578125 273.761719 213.507812 C 275.699219 218.964844 279.324219 228.050781 272.84375 228 C 270.136719 228 269.066406 225.089844 268.351562 222.792969 C 259.984375 234.121094 258.808594 233.5625 257.585938 237.03125 C 255.542969 242.898438 262.074219 271.066406 261.871094 277.445312 C 261.769531 281.425781 259.421875 287.753906 257.738281 293.011719 C 262.992188 299.386719 269.78125 305.613281 277.535156 310.820312 C 278.351562 311.378906 277.996094 312.707031 276.976562 312.707031 C 275.953125 312.707031 266.003906 305.308594 258.65625 297.195312 C 256.714844 295.050781 257.125 295 256.714844 296.53125 C 256.359375 298.011719 254.523438 302.960938 254.472656 309.746094 C 254.421875 315.257812 256.664062 331.535156 254.265625 331.535156 C 252.378906 331.535156 253.910156 330.058594 252.632812 314.1875 C 252.175781 309.085938 252.480469 304.183594 254.0625 298.417969 C 248.09375 306.277344 244.316406 309.746094 240.640625 319.238281 C 240.488281 319.648438 240.082031 319.902344 239.671875 319.902344 C 234.007812 319.902344 253.398438 295.917969 255.339844 293.265625 C 248.296875 284.4375 241.714844 273.414062 236.253906 263.820312 C 227.070312 247.644531 230.488281 254.789062 208.699219 219.273438 C 191.601562 191.460938 196.605469 197.585938 187.316406 181.613281 C 182.0625 172.53125 168.179688 162.070312 154.503906 159.671875 C 148.6875 166.304688 136.746094 164.363281 139.296875 175.132812 C 139.453125 175.796875 138.941406 176.460938 138.175781 176.355469 C 137.15625 176.304688 135.011719 171.96875 134.550781 171.050781 C 130.980469 163.652344 135.011719 165.894531 125.828125 168.753906 C 119.550781 170.691406 117.96875 169.722656 113.019531 171.96875 C 105.210938 175.488281 107.964844 183.808594 105.160156 187.175781 C 104.089844 188.503906 101.128906 190.492188 100.003906 189.777344 C 99.546875 189.574219 99.292969 188.808594 99.699219 188.296875 C 105.007812 180.898438 95.414062 180.746094 102.660156 172.632812 C 102.964844 172.273438 88.933594 183.042969 94.445312 192.941406 C 97.097656 197.6875 99.035156 204.066406 97.710938 209.320312 C 96.128906 215.546875 91.433594 215.597656 89.339844 222.640625 C 88.015625 227.132812 88.472656 230.347656 90.003906 233.714844 C 95.820312 246.265625 87.808594 257.699219 87.25 262.1875 C 85.410156 275.964844 96.996094 282.445312 108.121094 302.246094 C 128.277344 309.238281 154.300781 306.480469 190.074219 300.308594 C 178.539062 287.039062 164.609375 268.875 154.300781 254.636719 C 122.613281 232.746094 134.449219 232.285156 138.125 236.011719 C 139.09375 236.980469 145.472656 243.410156 148.226562 246.164062 C 140.113281 234.683594 140.011719 234.785156 141.085938 234.070312 C 142.410156 233.203125 257.226562 403.488281 292.234375 364.246094 C 302.183594 353.070312 301.011719 340.417969 311.265625 299.695312 C 319.226562 268.003906 315.398438 280.558594 318.972656 264.332031 C 322.238281 249.429688 328.566406 231.980469 327.390625 221.875 C 327.035156 218.660156 326.882812 216.515625 327.339844 213.199219 C 325.65625 215.089844 323.820312 216.414062 320.402344 219.121094 C 315.757812 222.792969 315.910156 223.609375 314.992188 223.609375 C 314.074219 223.609375 313.613281 222.488281 314.277344 221.875 C 325.25 210.800781 331.679688 213.660156 329.023438 190.902344 Z M 271.207031 113.589844 C 269.78125 113.589844 269.78125 115.734375 271.207031 115.734375 C 272.636719 115.734375 272.636719 113.589844 271.207031 113.589844 Z M 277.078125 146.710938 C 275.699219 146.65625 276.261719 148.035156 275.546875 149.566406 C 274.527344 151.863281 272.535156 151.914062 273.453125 153.242188 C 275.292969 155.84375 280.140625 146.863281 277.078125 146.710938 Z M 293.917969 147.117188 C 295.347656 147.117188 295.347656 144.972656 293.917969 144.972656 C 292.488281 144.972656 292.488281 147.117188 293.917969 147.117188 Z M 293.917969 147.117188 " fill-opacity="1" fill-rule="nonzero"/></svg>